<?xml version="1.0" encoding="UTF-8" standalone="no"?>
<!-- Created with Inkscape (http://www.inkscape.org/) -->

<svg
   width="181.10155mm"
   height="35.904137mm"
   viewBox="0 0 181.10155 35.904137"
   version="1.1"
   id="svg481"
   xml:space="preserve"
   inkscape:version="1.2.1 (9c6d41e410, 2022-07-14)"
   sodipodi:docname="paths 1.svg"
   xmlns:inkscape="http://www.inkscape.org/namespaces/inkscape"
   xmlns:sodipodi="http://sodipodi.sourceforge.net/DTD/sodipodi-0.dtd"
   xmlns="http://www.w3.org/2000/svg"
   xmlns:svg="http://www.w3.org/2000/svg"><sodipodi:namedview
     id="namedview483"
     pagecolor="#ffffff"
     bordercolor="#666666"
     borderopacity="1.0"
     inkscape:showpageshadow="2"
     inkscape:pageopacity="0.0"
     inkscape:pagecheckerboard="0"
     inkscape:deskcolor="#d1d1d1"
     inkscape:document-units="mm"
     showgrid="false"
     inkscape:zoom="0.733172"
     inkscape:cx="726.97812"
     inkscape:cy="477.37775"
     inkscape:window-width="1920"
     inkscape:window-height="1001"
     inkscape:window-x="-7"
     inkscape:window-y="-7"
     inkscape:window-maximized="1"
     inkscape:current-layer="layer1" /><defs
     id="defs478" /><g
     inkscape:label="Layer 1"
     inkscape:groupmode="layer"
     id="layer1"
     transform="translate(-12.103215,-65.091147)"><path
       style="display:inline;fill:#00000020;stroke-width:0.148789"
       d="m 151.39524,100.86059 c 0.53768,-0.1722 1.04152,-0.1722 1.04152,0 0,0.0818 -0.31803,0.14211 -0.70674,0.13395 -0.57603,-0.0121 -0.63795,-0.0369 -0.33478,-0.13395 z m -53.861482,-0.29758 c 0,-0.18642 0.1579,-0.18642 0.44636,0 0.18048,0.11663 0.15913,0.14467 -0.11159,0.14651 -0.18412,0.001 -0.33477,-0.0647 -0.33477,-0.14651 z m 13.093452,-0.18599 c -5e-5,-0.26789 0.16717,-0.34115 0.35347,-0.15485 0.058,0.0581 0.3705,0.0864 0.69435,0.063 0.34756,-0.0251 0.58881,0.0231 0.58881,0.11765 0,0.15677 -0.17426,0.19 -1.15307,0.21983 -0.3669,0.0112 -0.48353,-0.0481 -0.48356,-0.24565 z m 2.23179,0.18556 c 0,-0.0926 0.11717,-0.13195 0.26038,-0.0874 0.1432,0.0446 0.35856,0.0194 0.47857,-0.0559 0.13636,-0.0855 0.28737,-0.0795 0.40265,0.0162 0.10145,0.0842 0.26356,0.1042 0.36024,0.0445 0.0967,-0.0598 0.63057,-0.12463 1.18642,-0.14418 0.79067,-0.0278 0.97368,0.004 0.84082,0.14626 -0.22962,0.24581 -3.52908,0.32108 -3.52908,0.0805 z m 4.134,-0.027 c 0.24624,-0.24623 0.77602,-0.26132 0.77602,-0.0221 0,0.12392 -0.17863,0.19832 -0.47612,0.19832 -0.36683,0 -0.43568,-0.0405 -0.2999,-0.17623 z m 5.38847,0.0274 c 0,-0.0818 0.0709,-0.14879 0.15757,-0.14879 0.0867,0 0.11619,0.067 0.0656,0.14879 -0.0506,0.0818 -0.12148,0.14879 -0.15757,0.14879 -0.0361,0 -0.0656,-0.067 -0.0656,-0.14879 z m -23.657402,-0.14879 c 0,-0.0818 0.067,-0.14879 0.14879,-0.14879 0.0818,0 0.14879,0.067 0.14879,0.14879 0,0.0818 -0.067,0.14879 -0.14879,0.14879 -0.0818,0 -0.14879,-0.0669 -0.14879,-0.14879 z m 1.487882,0 c 0,-0.0818 0.067,-0.14879 0.14879,-0.14879 0.0818,0 0.14879,0.067 0.14879,0.14879 0,0.0818 -0.067,0.14879 -0.14879,0.14879 -0.0818,0 -0.14879,-0.0669 -0.14879,-0.14879 z m 19.34253,0.005 c 0,-0.0793 0.10044,-0.10558 0.22319,-0.0585 0.12275,0.0471 0.22318,0.11196 0.22318,0.14412 0,0.0322 -0.10043,0.0585 -0.22318,0.0585 -0.12275,0 -0.22319,-0.0648 -0.22319,-0.14412 z m -85.999822,-0.20966 c -0.27885,-0.14437 -0.72585,-0.16306 -1.78546,-0.0746 -1.57891,0.13178 -5.19062,0.0358 -5.69739,-0.151443 -0.1807,-0.0668 -0.40775,-0.0934 -0.50454,-0.0593 -0.0968,0.0342 -0.63151,-0.0786 -1.18826,-0.25056 -0.55674,-0.17196 -1.60252,-0.34398 -2.32394,-0.38226 -0.72142,-0.0383 -1.55072,-0.1695 -1.84288,-0.29157 -0.29217,-0.12207 -0.79983,-0.22195 -1.12813,-0.22195 -0.76672,0 -1.70973,-0.28248 -1.80931,-0.54199 -0.0924,-0.24085 -0.0192,-0.24714 0.64823,-0.0557 0.28046,0.0804 0.53943,0.11674 0.57549,0.0807 0.0361,-0.0361 -0.11015,-0.2744 -0.32492,-0.52964 -0.21477,-0.25523 -0.39048,-0.52432 -0.39048,-0.59796 0,-0.0736 -0.25108,-0.25987 -0.55796,-0.41383 -0.30688,-0.15396 -0.75882,-0.38945 -1.00432,-0.52331 -0.24551,-0.13387 -0.6305,-0.24381 -0.85554,-0.24431 -0.22504,-4.5e-4 -0.40917,-0.0639 -0.40917,-0.14092 0,-0.24613 0.20954,-0.28255 0.89402,-0.15538 0.36755,0.0683 0.72153,0.0726 0.78663,0.01 0.0651,-0.063 -0.0789,-0.32579 -0.32008,-0.58393 -0.38798,-0.41533 -0.82012,-0.57394 -1.28617,-0.47207 -1.07566,0.23513 -1.84315,0.0736 -2.01946,-0.42502 -0.076,-0.21483 -0.19584,-0.49214 -0.2664,-0.61624 -0.16098,-0.28313 0.14425,-0.59269 0.58443,-0.59269 0.21693,0 0.29338,-0.0688 0.2377,-0.21388 -0.0451,-0.11763 -0.15604,-0.50262 -0.24645,-0.85553 -0.0904,-0.35291 -0.20483,-0.74209 -0.25429,-0.86484 -0.0495,-0.12275 -0.076,-0.33673 -0.0591,-0.47551 0.0384,-0.31388 -0.38782,-1.16117 -0.58409,-1.16117 -0.0797,0 -0.14497,-0.0699 -0.14497,-0.15522 0,-0.0879 0.24186,-0.13632 0.55796,-0.1116 l 0.55795,0.0436 -0.0193,-0.58405 c -0.0116,-0.35117 -0.11648,-0.65512 -0.26303,-0.76229 -0.21909,-0.1602 -0.20585,-0.20307 0.13087,-0.4237 0.48185,-0.31572 0.47483,-0.61246 -0.0222,-0.93813 l -0.39683,-0.26001 0.3434,-0.0811 c 0.18887,-0.0446 0.44179,-0.22927 0.56206,-0.4104 0.20364,-0.30669 0.19259,-0.33924 -0.1607,-0.47357 -0.20865,-0.0793 -0.4526,-0.28107 -0.54211,-0.44833 -0.14975,-0.27981 -0.13168,-1.7389 0.0252,-2.0369 0.0371,-0.0705 0.0801,-0.34406 0.0955,-0.60782 0.0229,-0.39134 0.76782,-2.10788 0.76782,-1.76919 0,0.056 0.13579,0.0291 0.30175,-0.0597 0.3961,-0.21199 0.25358,-0.4237 -0.2238,-0.33244 -0.23841,0.0456 -0.37552,0.004 -0.37552,-0.11295 0,-0.18193 -0.41928,-0.15215 -1.11592,0.0793 -0.20718,0.0688 -0.23835,0.0563 -0.10261,-0.0411 0.31026,-0.22272 0.25047,-1.9572 -0.0788,-2.28649 -0.11486,-0.11486 -0.12946,-0.2647 -0.0418,-0.42856 0.14099,-0.26343 0.11389,-1.10476 -0.0479,-1.48793 -0.0965,-0.22849 -0.0813,-0.37309 0.1125,-1.067937 0.0611,-0.219115 0.044,-0.51823 -0.038,-0.664701 -0.15998,-0.285866 0.0932,-0.60203 0.90876,-1.13497 0.42614,-0.278454 0.55945,-0.64612 0.18172,-0.501172 -0.14523,0.05573 -0.30234,-0.07014 -0.45428,-0.363965 -0.12775,-0.247038 -0.35881,-0.575698 -0.51347,-0.730357 -0.38698,-0.386982 -0.43501,-0.795294 -0.1016,-0.863635 0.17149,-0.03515 0.29835,0.04932 0.34564,0.230145 0.0691,0.264354 0.10805,0.254522 0.52154,-0.131729 0.24576,-0.229574 0.40401,-0.486688 0.35168,-0.571365 -0.0523,-0.08468 0.0134,-0.195605 0.14603,-0.246508 0.19699,-0.07559 0.15101,-0.168636 -0.25095,-0.507798 l -0.49213,-0.415988 0.37197,-0.14323 c 0.42454,-0.163473 0.59515,-0.1054 0.59515,0.202583 0,0.117921 0.0598,0.214402 0.13287,0.214402 0.18461,0 0.33533,-0.439463 0.2166,-0.63157 -0.0577,-0.09332 -0.0273,-0.11475 0.0739,-0.05219 0.0945,0.05839 0.17178,0.03131 0.17178,-0.06019 0,-0.09149 0.0699,-0.123157 0.1553,-0.07037 0.0854,0.05279 0.26319,0.0065 0.39504,-0.10281 0.13185,-0.109338 0.41347,-0.198795 0.62583,-0.198795 0.54626,0 0.6045,-0.280235 0.0801,-0.385405 l -0.43793,-0.08783 0.44056,-0.180804 c 0.4106,-0.168511 0.74803,-0.149569 1.33277,0.07481 0.1752,0.06723 0.21422,0.02782 0.14669,-0.148154 -0.0506,-0.131862 -0.0466,-0.23975 0.009,-0.23975 0.16547,0 0.52605,0.411576 0.52605,0.600446 0,0.09875 0.1028,0.135889 0.23535,0.08502 0.12945,-0.04967 0.29683,-0.09031 0.37197,-0.09031 0.0751,0 0.13662,-0.07412 0.13662,-0.164707 0,-0.09059 -0.10043,-0.126168 -0.22318,-0.07906 -0.12275,0.0471 -0.22318,0.01353 -0.22318,-0.07461 0,-0.09016 0.14642,-0.126049 0.33477,-0.08206 0.18413,0.04301 0.66955,0.02367 1.07872,-0.04296 0.5625,-0.09161 0.80123,-0.07046 0.97884,0.08673 0.31901,0.282318 0.43465,0.261321 0.43465,-0.07892 0,-0.255669 0.0867,-0.279753 0.79902,-0.22186 0.59148,0.04807 0.84742,0.0066 0.98535,-0.159564 0.15701,-0.18919 0.13079,-0.226152 -0.16667,-0.234965 -0.33006,-0.0098 -0.33366,-0.01876 -0.0554,-0.138331 0.49375,-0.212174 0.86079,-0.176458 0.76453,0.07439 -0.0532,0.138689 8.9e-4,0.223183 0.1429,0.223183 0.16905,0 0.20098,0.08683 0.12265,0.333607 -0.094,0.296118 -0.0785,0.310871 0.13791,0.131281 0.13408,-0.111281 0.40826,-0.170889 0.60927,-0.132463 0.20474,0.03914 0.35235,0.0028 0.33563,-0.08269 -0.0164,-0.0839 0.27145,-0.277253 0.6397,-0.429664 0.5834,-0.241457 0.60733,-0.267332 0.18598,-0.201102 -0.26689,0.04195 -0.48356,0.01101 -0.48356,-0.06906 0,-0.07979 0.0933,-0.145069 0.20726,-0.145069 0.114,0 0.24581,-0.100432 0.29291,-0.223183 0.0471,-0.12275 0.23839,-0.218477 0.42509,-0.212725 0.31928,0.0098 0.32177,0.01736 0.0419,0.126773 -0.29317,0.114592 -0.29293,0.117794 0.0162,0.216099 0.35324,0.112319 0.77399,-0.01212 1.08668,-0.321379 0.18035,-0.17837 0.23672,-0.147866 0.39709,0.214857 0.12462,0.281877 0.19092,0.335978 0.19898,0.162361 0.007,-0.143209 0.11251,-0.26038 0.23527,-0.26038 0.12275,0 0.22318,-0.06527 0.22318,-0.145035 0,-0.08116 0.454,-0.140784 1.03087,-0.135383 0.56698,0.0053 1.16916,-0.03424 1.33816,-0.08788 0.23839,-0.07566 0.28725,-0.04531 0.21791,0.135384 -0.11051,0.287989 0.38656,0.322949 0.66721,0.04693 0.15171,-0.149209 0.24509,-0.117482 0.47222,0.160451 0.15571,0.190539 0.39726,0.324449 0.53677,0.297577 0.23747,-0.04574 0.23772,-0.0648 0.004,-0.298611 -0.32485,-0.324854 -0.31509,-0.419797 0.0432,-0.419797 0.21207,0 0.26669,0.06833 0.1979,0.247591 -0.0623,0.162372 -0.0372,0.211849 0.073,0.143748 0.0924,-0.05711 0.30298,-0.01956 0.46794,0.08346 0.23666,0.147798 0.33835,0.148861 0.48217,0.005 0.14382,-0.143821 0.10538,-0.183214 -0.18227,-0.186785 -0.30727,-0.0038 -0.32564,-0.02722 -0.11694,-0.149026 0.26607,-0.155283 0.71953,-0.04848 0.71953,0.169469 0,0.183304 0.40983,0.168085 0.4717,-0.01752 0.0276,-0.08271 0.64516,-0.184999 1.37243,-0.227303 1.08011,-0.06283 1.37055,-0.03324 1.58578,0.161538 0.30294,0.274157 1.12781,0.240091 1.07095,-0.04423 -0.0205,-0.102292 0.10491,-0.185985 0.2786,-0.185985 0.26606,0 0.28615,0.03571 0.12758,0.226778 -0.34633,0.417302 0.008,0.434003 0.39354,0.01853 0.31695,-0.341815 0.48292,-0.402415 0.99909,-0.364807 0.49386,0.03598 0.61017,0.09774 0.57528,0.30548 -0.0294,0.175209 0.0529,0.26038 0.2516,0.26038 0.39158,0 0.52677,-0.24076 0.20461,-0.364384 -0.20185,-0.07746 -0.21381,-0.123669 -0.0571,-0.220537 0.26152,-0.16163 0.7605,-0.02478 0.7605,0.208576 0,0.270652 0.69256,0.971499 0.96002,0.971499 0.3271,0 0.288,-0.113083 -0.17888,-0.517383 l -0.40917,-0.354321 0.37197,-0.142167 c 0.23732,-0.0907 0.43645,-0.09028 0.55009,0.0012 0.10284,0.08276 0.52917,0.09948 1.00872,0.03957 0.73404,-0.09171 0.8624,-0.06712 1.10404,0.211493 0.319,0.367808 0.4889,0.410473 0.36673,0.09209 -0.0615,-0.16029 0.0153,-0.223183 0.27249,-0.223183 0.19697,0 0.43895,-0.08082 0.53774,-0.179609 0.14029,-0.140286 0.23115,-0.12807 0.41501,0.0558 0.21469,0.214681 0.19924,0.235405 -0.17544,0.235405 -0.22597,0 -0.49041,0.108802 -0.58765,0.241781 -0.0972,0.13298 -0.26649,0.241782 -0.37613,0.241782 -0.15099,0 -0.15756,0.04178 -0.0271,0.17224 0.13046,0.130462 0.22791,0.126043 0.40173,-0.01822 0.22421,-0.186077 0.31038,-0.07116 0.24711,0.329541 -0.01,0.06137 0.15534,0.111591 0.36675,0.111591 0.24467,0 0.35958,-0.0676 0.31617,-0.185986 -0.0375,-0.102292 -0.13633,-0.171641 -0.21962,-0.154109 -0.0833,0.01753 -0.1874,-0.105723 -0.23138,-0.273901 -0.0686,-0.262482 -0.0283,-0.292812 0.28488,-0.214208 0.25226,0.06331 0.3917,0.02157 0.45189,-0.135267 0.0479,-0.12476 0.2183,-0.226837 0.37873,-0.226837 0.2312,0 0.27216,0.06942 0.19752,0.334774 -0.0695,0.246929 -0.0557,0.278958 0.0525,0.122059 0.0807,-0.116993 0.29405,-0.223575 0.47422,-0.236849 0.18018,-0.01327 0.38972,-0.135155 0.46566,-0.270848 0.0761,-0.135937 0.31847,-0.24569 0.53984,-0.244435 0.30587,0.0017 0.34953,0.03532 0.1829,0.140698 -0.12038,0.07613 -0.17505,0.182243 -0.12149,0.235804 0.0536,0.05356 0.18325,0.04432 0.28819,-0.02054 0.2743,-0.169525 1.46567,-0.197459 1.46567,-0.03436 0,0.08065 0.10737,0.07719 0.26029,-0.0084 0.18671,-0.104492 0.33035,-0.08225 0.50817,0.07868 0.22117,0.200156 0.28708,0.198661 0.61145,-0.01387 0.33552,-0.219839 0.37951,-0.218591 0.57054,0.01618 0.18461,0.226893 0.17482,0.2433 -0.0906,0.151775 -0.29299,-0.101033 -0.29312,-0.09917 -0.009,0.120931 0.37973,0.293916 0.43221,0.284356 0.60583,-0.110357 0.17035,-0.387278 0.72212,-0.576365 0.5768,-0.197664 -0.0494,0.128694 -0.0157,0.233991 0.0749,0.233991 0.0906,0 0.1647,-0.08035 0.1647,-0.178546 0,-0.13887 0.0397,-0.13887 0.17855,0 0.24826,0.248259 0.5654,0.223222 0.5654,-0.04464 0,-0.1757 0.20762,-0.223183 0.9759,-0.223183 0.67557,0 0.94458,0.05069 0.87412,0.164699 -0.0716,0.115897 0.047,0.131139 0.40039,0.05144 0.53502,-0.120667 3.49779,-0.145962 4.1888,-0.03576 0.22731,0.03625 0.49178,0.144404 0.58772,0.240344 0.20598,0.205983 0.76652,0.237351 0.64203,0.03593 -0.13459,-0.217772 0.20774,-0.351845 0.42916,-0.168081 0.14818,0.12298 0.21792,0.116725 0.27195,-0.02439 0.05,-0.130515 0.3248,-0.174412 0.88001,-0.140562 0.64924,0.03958 0.83508,0.11054 0.94903,0.362346 0.16006,0.353718 0.54537,0.541703 0.48112,0.234733 -0.0271,-0.129593 0.0796,-0.186809 0.30344,-0.162628 0.18991,0.02052 0.44578,-0.06318 0.56859,-0.185986 0.30178,-0.301781 0.64733,-0.28216 0.65313,0.03709 0.004,0.242368 0.019,0.241525 0.21131,-0.01219 0.1757,-0.231842 0.33062,-0.257071 1.03678,-0.168842 0.59307,0.0741 0.83022,0.16754 0.83022,0.327121 0,0.147962 0.0976,0.197863 0.28913,0.147785 0.17173,-0.04491 0.39234,0.03845 0.54334,0.205304 0.18904,0.208885 0.30404,0.23957 0.4485,0.119673 0.22706,-0.188441 1.74358,-0.106181 2.73962,0.148604 0.53607,0.137126 0.88294,0.12807 1.70643,-0.04455 0.56848,-0.119162 1.07349,-0.192 1.12226,-0.161861 0.0488,0.03014 0.65344,0.0573 1.34373,0.06035 0.69029,0.0031 1.38898,0.0074 1.55265,0.0097 0.16366,0.0023 0.51453,0.0015 0.7797,-0.0019 0.26517,-0.0033 0.68031,0.09643 0.92254,0.221689 0.55526,0.287137 0.88576,0.288167 1.20005,0.0037 0.19957,-0.180615 0.33911,-0.19208 0.72032,-0.05919 0.26004,0.09065 0.57239,0.1266 0.69412,0.07989 0.13399,-0.05142 0.22132,0.0013 0.22132,0.133584 0,0.120182 0.0607,0.218513 0.13486,0.218513 0.0742,0 0.11726,0.117172 0.0958,0.260381 -0.0215,0.143209 -0.0112,0.181333 0.0229,0.08472 0.0441,-0.125082 0.74698,-0.175821 2.44105,-0.176217 l 2.3791,-5.51e-4 0.14635,0.384935 0.14635,0.384934 0.31028,-0.333044 c 0.22275,-0.239098 0.39973,-0.303613 0.62739,-0.228709 0.17441,0.05738 0.91971,0.124051 1.65621,0.148148 0.7365,0.0241 2.30994,0.08551 3.49653,0.136479 1.18659,0.05097 2.22927,0.04025 2.31707,-0.02382 0.0878,-0.06407 0.20288,-0.233659 0.25572,-0.376868 0.14902,-0.403909 0.31018,-0.312564 0.59062,0.334774 0.28589,0.659899 0.32239,0.675799 0.85388,0.371972 0.20459,-0.116951 0.556102,-0.215011 0.781142,-0.217911 0.33797,-0.0044 0.40917,-0.07126 0.40917,-0.384538 v -0.379267 l 1.07872,0.104389 c 1.28131,0.123992 1.51573,0.12371 2.82654,-0.0034 0.64882,-0.06292 1.11598,-0.03735 1.32082,0.07228 0.24011,0.128502 0.34354,0.126606 0.42662,-0.0078 0.0825,-0.13358 0.29856,-0.110354 0.87381,0.09396 0.68884,0.244649 1.00257,0.499123 0.61535,0.499123 -0.0818,0 -0.14879,0.06696 -0.14879,0.148788 0,0.08183 0.23225,0.148789 0.5161,0.148789 0.37018,0 0.49446,0.05636 0.43959,0.199345 -0.131,0.341389 0.2734,0.519025 1.27692,0.560895 0.91917,0.03835 0.97583,0.02078 1.16045,-0.35996 0.11194,-0.230829 0.31665,-0.40028 0.48357,-0.40028 0.1869,0 0.28946,-0.101881 0.28946,-0.287551 0,-0.298097 0.47963,-0.54535 0.74261,-0.382821 0.0826,0.05103 0.15012,0.18926 0.15012,0.307182 0,0.117921 0.0741,0.214401 0.1647,0.214401 0.0906,0 0.1283,-0.09489 0.0838,-0.210869 -0.11555,-0.301142 0.26767,-0.40178 0.59258,-0.155615 0.15116,0.114528 0.39201,0.210361 0.53522,0.212964 0.14321,0.0026 0.26038,0.09958 0.26038,0.215516 0,0.273745 0.30477,0.378677 0.62385,0.214792 0.15353,-0.07885 0.39872,-0.06246 0.62795,0.04198 0.28306,0.128972 0.42696,0.129108 0.58186,5.5e-4 0.1132,-0.09394 0.36626,-0.16671 0.56237,-0.161711 1.39507,0.03556 2.82825,-0.04363 3.33233,-0.18412 1.02453,-0.285551 1.26471,-0.254605 1.26471,0.162951 0,0.287346 0.0397,0.329768 0.17854,0.190899 0.0982,-0.0982 0.30117,-0.178546 0.45104,-0.178546 0.14987,0 0.31103,-0.100433 0.35813,-0.223183 0.12277,-0.319942 0.90711,-0.290555 0.99276,0.0372 0.0648,0.247981 0.0689,0.247981 0.0853,0 0.0236,-0.356014 0.32465,-0.329384 0.42051,0.0372 0.0986,0.376895 0.1224,0.374067 0.60297,-0.07155 0.46204,-0.428424 0.82394,-0.272441 0.51513,0.22203 -0.25234,0.404074 -0.22787,0.841693 0.0531,0.949512 0.44079,0.169147 1.10374,0.0989 1.10374,-0.116954 0,-0.197569 0.30291,-0.38789 0.61735,-0.38789 0.0807,0 0.10415,0.13391 0.0522,0.297577 -0.0868,0.273342 -0.024,0.298701 0.77111,0.311375 0.47606,0.0076 1.1456,0.0028 1.48786,-0.01062 0.34226,-0.01343 0.75634,0.04733 0.92018,0.135012 0.18867,0.100971 0.42644,0.110559 0.64845,0.02615 0.19281,-0.0733 1.31869,-0.153227 2.50196,-0.177606 1.24279,-0.0256 2.39241,-0.12553 2.72208,-0.236605 0.48562,-0.163614 0.60367,-0.159301 0.79191,0.02893 0.1344,0.134406 0.3573,0.187053 0.56802,0.134166 0.24255,-0.06088 0.39195,-0.0064 0.49695,0.18125 0.11978,0.214036 0.32581,0.265078 1.01872,0.252391 0.5758,-0.01054 0.95319,0.05861 1.11959,0.205163 0.1459,0.128503 0.33102,0.171613 0.4421,0.102958 0.10511,-0.06496 0.37119,-0.104387 0.59129,-0.08762 0.22009,0.01677 0.58167,-0.03851 0.80349,-0.122848 0.2901,-0.110295 0.46222,-0.10446 0.61313,0.02078 0.15913,0.132071 0.34758,0.132844 0.7803,0.0032 0.78458,-0.235067 0.90794,-0.217224 0.90794,0.13132 0,0.166236 0.0837,0.332753 0.18599,0.370038 0.24847,0.09057 3.97379,-0.410077 4.23009,-0.568481 0.072,-0.04451 1.15721,-0.119714 2.41154,-0.167116 1.99069,-0.07523 2.26969,-0.05777 2.19482,0.137353 -0.0608,0.158374 0.0126,0.223537 0.25176,0.223537 0.18565,0 0.41417,0.07662 0.50782,0.170268 0.12783,0.127833 0.27815,0.125583 0.60312,-0.009 0.48666,-0.201583 1.45666,-0.247973 1.94489,-0.09301 0.29546,0.09377 1.32526,-0.179505 1.98885,-0.527786 0.3601,-0.188986 0.56668,-0.169075 0.52279,0.05039 -0.0222,0.111125 0.14246,0.197492 0.40917,0.214572 0.2455,0.01572 0.91505,0.07116 1.48788,0.123197 1.49924,0.13619 1.45707,0.135864 1.82266,0.01408 0.25879,-0.08621 0.33478,-0.05465 0.33478,0.139043 0,0.191651 0.0787,0.225964 0.33477,0.145937 1.1328,-0.354028 3.21921,-0.654278 4.20328,-0.604885 0.40917,0.02054 1.2461,-0.05729 1.85986,-0.172958 1.5524,-0.292556 6.04559,-0.402235 6.14241,-0.149937 0.0925,0.241001 1.44398,0.191798 2.93369,-0.106803 0.28642,-0.05741 0.68815,-0.03749 0.89273,0.04426 0.20459,0.08176 0.28828,0.152889 0.18599,0.158077 -0.10229,0.0052 -0.18599,0.109863 -0.18599,0.232614 0,0.12275 0.0837,0.229221 0.18599,0.236601 0.10229,0.0074 -0.0316,0.07625 -0.29758,0.153043 -0.26596,0.07679 -0.48356,0.227676 -0.48356,0.335295 0,0.223884 -3.13234,0.715771 -4.40492,0.691725 -0.41778,-0.0079 -1.05385,0.05683 -1.41349,0.143843 -0.35964,0.08701 -0.85476,0.182993 -1.10026,0.2133 -0.2455,0.03031 -0.51332,0.07 -0.59515,0.0882 -0.0818,0.0182 -0.21575,0.01868 -0.29758,0.0011 -0.3543,-0.07628 -1.3542,0.03633 -1.51729,0.170875 -0.10598,0.08743 -0.27255,0.0942 -0.41101,0.01671 -0.26436,-0.147939 -2.65939,0.04378 -3.15788,0.252778 -0.2236,0.09375 -0.34316,0.08152 -0.38341,-0.03921 -0.0521,-0.156371 -1.60198,-0.27521 -4.01569,-0.307912 -0.3854,-0.0052 -0.55795,-0.07445 -0.55795,-0.223855 0,-0.183869 -0.0391,-0.18177 -0.26038,0.014 -0.23753,0.210082 -1.96221,0.510294 -2.23017,0.388197 -0.0623,-0.02839 -0.0968,-0.171477 -0.0768,-0.317978 0.0306,-0.222998 -0.0618,-0.260564 -0.56749,-0.230728 -0.3322,0.0196 -0.63729,0.0895 -0.67797,0.155321 -0.0407,0.06583 -0.23996,0.07802 -0.44282,0.02711 -0.24536,-0.06158 -0.46451,-0.006 -0.65456,0.165992 -0.19698,0.178258 -0.43773,0.235481 -0.77515,0.184238 -0.26919,-0.04088 -0.58986,-0.02287 -0.71261,0.04002 -0.22572,0.115645 -1.25112,0.271159 -1.93426,0.293354 -0.35406,0.0115 -0.35764,0.02021 -0.0744,0.180831 0.16367,0.09281 0.34538,0.241422 0.40381,0.33025 0.0946,0.143754 1.18474,0.234139 3.25843,0.270152 0.4203,0.0073 0.94332,-0.112415 1.34889,-0.308743 0.70929,-0.343365 1.40337,-0.419687 1.4887,-0.163701 0.0632,0.189704 0.97205,0.242338 1.38597,0.08027 0.21284,-0.08334 0.23919,-0.07489 0.0925,0.02967 -0.27261,0.194359 -0.0561,0.525967 0.2573,0.394145 0.42558,-0.178988 1.3991,-0.354646 2.47715,-0.446968 0.57284,-0.04906 1.3188,-0.140767 1.6577,-0.203802 0.33889,-0.06303 0.70715,-0.06533 0.81834,-0.0051 0.11119,0.06023 0.60388,0.05297 1.09489,-0.01613 0.491,-0.0691 1.36141,-0.137371 1.93425,-0.151708 0.57283,-0.01434 1.20891,-0.08923 1.41349,-0.166429 0.20458,-0.0772 0.71972,-0.09734 1.14474,-0.04477 0.60951,0.0754 0.75437,0.143517 0.6857,0.322451 -0.0747,0.194572 0.0377,0.211512 0.78952,0.119029 0.48212,-0.05931 1.00864,-0.199216 1.17006,-0.310912 0.16142,-0.111694 0.39993,-0.203081 0.53001,-0.203081 0.13009,0 0.51368,-0.13391 0.85244,-0.297577 0.73637,-0.35578 1.05169,-0.37046 1.6176,-0.07531 l 0.42618,0.222266 -0.54579,9.23e-4 c -0.64668,0.0011 -1.01649,0.123047 -1.01649,0.335228 0,0.0977 0.30412,0.122297 0.83484,0.06752 0.50864,-0.0525 0.93894,-0.02115 1.10125,0.08021 0.19795,0.123619 0.52826,0.118051 1.28539,-0.02167 1.17031,-0.215967 2.75411,-0.16986 2.83731,0.0826 0.059,0.178887 -0.79477,0.337954 -2.0787,0.387307 -1.29342,0.04972 -0.7289,0.232973 0.71767,0.232973 1.34834,0 2.37739,0.220237 2.21987,0.475095 -0.0873,0.141201 0.31488,0.33018 0.81938,0.385049 1.31259,0.142755 1.91964,0.260474 1.85795,0.360292 -0.10427,0.168716 0.29777,0.286544 0.65709,0.192578 0.34833,-0.09109 0.4091,0.09242 0.12595,0.380272 -0.1498,0.152293 -0.11361,0.174222 0.18599,0.112725 0.20458,-0.04199 0.63979,-0.119677 0.96712,-0.172632 0.32734,-0.05295 0.67661,-0.163574 0.77615,-0.245822 0.12132,-0.10025 0.3175,-0.09973 0.59515,0.0016 0.25798,0.09413 0.31598,0.155539 0.15379,0.162856 -0.46897,0.02116 -0.27255,0.30888 0.22318,0.326943 0.26596,0.0097 0.53378,0.0097 0.59516,0 0.2008,-0.03171 0.11714,0.228938 -0.14879,0.463517 -0.14321,0.12633 -0.49473,0.27533 -0.78114,0.33112 -0.28642,0.0558 -0.82206,0.19518 -1.19031,0.30976 -0.89809,0.27945 -1.7816,0.35585 -2.21884,0.19187 -0.30657,-0.11497 -0.95366,-0.0368 -2.13323,0.25773 -0.0614,0.0153 -0.17855,0.0362 -0.26038,0.0465 -0.0818,0.0102 -0.14879,0.0793 -0.14879,0.15357 0,0.0742 0.37202,0.12021 0.82672,0.10216 0.87364,-0.0347 1.13876,0.0934 0.70149,0.33887 -0.25098,0.1409 -0.25065,0.15288 0.007,0.25208 0.14872,0.0573 0.34624,0.0283 0.43893,-0.0644 0.0927,-0.0927 0.3265,-0.16855 0.51954,-0.16855 0.19305,0 0.3117,-0.0636 0.26365,-0.14132 -0.048,-0.0777 0.044,-0.21164 0.20463,-0.29758 0.37177,-0.19895 1.79944,-0.20488 1.79944,-0.007 0,0.0818 -0.28456,0.15349 -0.63235,0.15925 -1.1392,0.0188 -1.25399,0.20335 -0.26326,0.42315 0.49819,0.11052 0.8815,0.22524 0.8518,0.25494 -0.0297,0.0297 -0.57957,0.0886 -1.22194,0.13083 -0.64238,0.0423 -1.18117,0.0928 -1.19733,0.11229 -0.0161,0.0195 -0.0757,0.1861 -0.13227,0.37023 -0.0903,0.29388 -0.0502,0.33477 0.32869,0.33477 0.23737,0 0.47983,-0.0482 0.53878,-0.10717 0.14352,-0.14353 1.17047,-0.0526 1.34847,0.11938 0.0777,0.0751 0.32882,0.13658 0.55795,0.13658 0.58446,0 0.5159,0.18021 -0.17969,0.47236 -0.45964,0.19305 -0.57096,0.30732 -0.4942,0.50735 0.069,0.17982 -0.0327,0.36364 -0.33515,0.60562 l -0.43421,0.34744 0.89274,0.021 c 0.491,0.0116 0.73108,0.0515 0.53354,0.0887 -0.4669,0.088 -1.50067,0.74179 -1.50067,0.94911 0,0.0885 0.13391,0.19587 0.29758,0.23867 0.34185,0.0894 0.40693,0.48948 0.0796,0.48948 -0.32317,0 -0.55925,-0.55138 -0.44968,-1.05025 0.10647,-0.48476 0.0368,-0.51345 -0.65838,-0.27112 -0.29628,0.10329 -0.44904,0.24117 -0.40225,0.3631 0.0477,0.1242 -0.11333,0.25887 -0.43726,0.36578 -0.658,0.21716 -0.65836,0.4437 0,0.4437 0.28158,0 0.55288,0.0662 0.60288,0.14708 0.0521,0.0843 -0.008,0.10929 -0.14001,0.0585 -0.12699,-0.0487 -0.23091,-0.0184 -0.23091,0.0673 0,0.0858 -0.28456,0.22497 -0.63235,0.30932 -0.58185,0.14113 -0.55571,0.14691 0.32748,0.0724 0.52792,-0.0445 1.08749,-0.1493 1.24349,-0.23279 0.19848,-0.10623 0.3343,-0.10114 0.45241,0.017 0.25624,0.25625 -0.17836,0.47887 -0.76713,0.39294 -0.2706,-0.0395 -0.94015,0.0418 -1.48788,0.18059 l -0.99658,0.2524 1.32604,0.0433 c 0.7293,0.0238 1.51602,-0.0229 1.74826,-0.10385 0.41094,-0.14325 0.60797,0.0221 0.23625,0.19825 -0.10229,0.0485 0.14608,0.0534 0.55195,0.011 0.57719,-0.0604 0.69872,-0.038 0.55795,0.10281 -0.099,0.099 -0.17997,0.22933 -0.17997,0.28965 0,0.20608 1.08739,-0.0663 1.36234,-0.34122 0.29479,-0.29479 0.7207,-0.36899 0.7207,-0.12555 0,0.0818 0.22957,0.14879 0.51014,0.14879 0.28057,0 0.60838,0.0983 0.72845,0.21833 0.1537,0.1537 0.49455,0.20876 1.15133,0.18599 0.56245,-0.0195 0.95422,0.0313 0.98645,0.128 0.0774,0.23208 -0.62015,0.5092 -1.28174,0.5092 -0.75114,0 -1.49947,0.15491 -1.49947,0.31039 0,0.0684 0.49313,0.0888 1.09582,0.0453 1.01693,-0.0734 1.10163,-0.0569 1.17639,0.22897 0.0626,0.23942 0.19964,0.30802 0.61524,0.30802 0.29408,0 0.53468,0.067 0.53468,0.14879 0,0.15033 -0.28155,0.19079 -1.47335,0.2117 -0.48524,0.009 -0.66431,0.0742 -0.69088,0.25347 -0.0197,0.13309 -0.0818,0.38679 -0.138,0.56377 -0.091,0.28665 -0.0602,0.31127 0.28171,0.22545 0.23969,-0.0601 0.38385,-0.0344 0.38385,0.0686 0,0.16247 -0.19313,0.2234 -0.55796,0.17603 -0.10229,-0.0133 -0.18598,0.0457 -0.18598,0.13116 0,0.0854 0.10043,0.15531 0.22318,0.15531 0.12275,0 0.22318,0.067 0.22318,0.14879 0,0.0818 -0.0693,0.14878 -0.15402,0.14878 -0.30658,0 0.14405,0.5604 0.52815,0.6568 0.21009,0.0527 0.34532,0.15519 0.30051,0.2277 -0.0829,0.13411 -1.79967,0.3355 -3.10571,0.36432 -0.69062,0.0152 -0.72765,0.0381 -0.90797,0.56097 l -0.18796,0.54507 0.53599,-0.2475 c 0.2948,-0.13612 0.64072,-0.37333 0.7687,-0.52713 0.21603,-0.25959 0.26402,-0.26308 0.66955,-0.0487 0.38276,0.20237 0.40325,0.24409 0.1654,0.33699 -0.19143,0.0748 -0.24692,0.20378 -0.18822,0.43765 0.078,0.31088 0.0252,0.33645 -0.84447,0.40897 -1.5386,0.1283 -2.37865,0.73893 -0.94178,0.68458 0.63726,-0.0241 0.98121,0.0839 0.98121,0.30812 0,0.0656 -0.16738,0.0874 -0.37197,0.0483 -0.30201,-0.0577 -0.37197,-0.0119 -0.37197,0.24381 0,0.3593 0.0526,0.37689 0.46566,0.15581 0.21606,-0.11563 0.35522,-0.11105 0.50922,0.0168 0.16709,0.13867 0.23129,0.12535 0.30357,-0.063 0.061,-0.15894 0.2007,-0.21152 0.41744,-0.15712 0.21473,0.0539 0.41846,-0.0207 0.59772,-0.21872 0.25334,-0.27996 0.30193,-0.28497 0.71113,-0.0734 0.43574,0.22533 0.43717,0.23029 0.17983,0.62683 -0.14268,0.21984 -0.38464,0.48909 -0.53769,0.59834 -0.18049,0.12882 -0.2465,0.29877 -0.18785,0.48356 0.11034,0.34769 -0.32876,0.40046 -0.58278,0.07 -0.13221,-0.17201 -0.31181,-0.18671 -0.89988,-0.0737 -0.53316,0.10249 -0.76417,0.0936 -0.84204,-0.0324 -0.0775,-0.12536 -0.17609,-0.10488 -0.35464,0.0737 -0.13602,0.13602 -0.34854,0.24731 -0.47227,0.24731 -0.12372,0 -0.19676,0.0837 -0.1623,0.18599 0.0345,0.10229 -0.0436,0.27065 -0.17358,0.37412 -0.17015,0.13551 -0.179,0.17713 -0.0317,0.14879 0.11252,-0.0216 0.23527,0.0443 0.27278,0.14664 0.0375,0.10229 -0.0296,0.18598 -0.14916,0.18598 -0.11956,0 -0.30072,0.10043 -0.4026,0.22318 -0.1114,0.13424 -0.4369,0.22319 -0.81671,0.22319 -0.69278,0 -2.20145,0.55499 -2.07312,0.76263 0.0442,0.0716 -0.1326,0.1301 -0.39295,0.1301 -0.4039,0 -0.44619,-0.0327 -0.28814,-0.22318 0.15151,-0.18257 0.14191,-0.22319 -0.0528,-0.22319 -0.28813,0 -0.7554,0.66847 -0.62019,0.88724 0.0532,0.086 -0.0248,0.19546 -0.17316,0.24322 -0.14841,0.0478 -0.40373,0.14165 -0.5674,0.20864 -0.16366,0.067 -0.41474,0.15925 -0.55795,0.20502 -0.52127,0.1666 -0.23981,0.37769 0.63568,0.47674 0.49283,0.0558 0.93368,0.16223 0.97964,0.23662 0.10461,0.16927 0.64493,0.0122 0.98512,-0.28644 0.17201,-0.15099 0.4247,-0.19839 0.76407,-0.14332 0.41255,0.067 0.60041,0.002 1.0077,-0.34591 0.60136,-0.51436 0.68077,-0.53114 0.65178,-0.13775 -0.0125,0.16972 -0.2792,0.4778 -0.60749,0.70176 -0.51247,0.34961 -0.74595,0.40273 -1.87872,0.42745 -0.71145,0.0155 -1.36561,0.0728 -1.45371,0.12722 -0.0881,0.0545 -0.52607,0.082 -0.97328,0.0613 -0.4472,-0.0207 -0.85874,0.008 -0.91452,0.0637 -0.0558,0.0558 -0.28796,0.10141 -0.51597,0.10141 -0.56761,0 -1.14888,0.28632 -1.25408,0.61773 -0.048,0.15125 -0.14255,0.275 -0.21012,0.275 -0.20528,0 -0.29926,-0.42266 -0.10912,-0.49078 0.51024,-0.1828 -0.25233,-0.28409 -2.22122,-0.29504 -1.49418,-0.008 -2.21327,0.0409 -2.25095,0.15393 -0.0357,0.10708 -0.34922,0.14185 -0.88214,0.0978 -0.45472,-0.0376 -0.90775,-0.001 -1.00674,0.0811 -0.099,0.0822 -1.07868,0.1577 -2.17705,0.16787 -1.09839,0.0102 -2.34991,0.0835 -2.78117,0.16299 -0.43126,0.0795 -1.00038,0.0937 -1.2647,0.0315 l -0.48059,-0.11297 0.59515,-0.1128 c 0.32734,-0.062 1.01935,-0.11667 1.53781,-0.12138 0.90108,-0.008 3.94511,-0.42732 5.67844,-0.78184 1.40457,-0.28728 1.24675,-0.46322 -0.32842,-0.36611 -1.27973,0.0789 -1.43399,0.0622 -1.35375,-0.14696 0.0929,-0.24209 -0.18828,-0.23558 -2.30651,0.0534 -0.30216,0.0412 -1.28587,0.12522 -2.18605,0.18665 -0.90017,0.0614 -1.83754,0.15284 -2.08304,0.20313 -0.41391,0.0848 -2.46025,0.27162 -5.1332,0.46868 -2.33698,0.17229 -2.97292,0.26586 -3.23061,0.47538 -0.2439,0.1983 -0.22896,0.21031 0.18044,0.14504 0.2455,-0.0391 0.80017,-3e-4 1.23259,0.0862 0.5615,0.11238 0.88821,0.1109 1.14298,-0.005 0.45284,-0.20632 2.46006,-0.0567 2.46006,0.18337 0,0.16409 -2.40246,0.26729 -6.91867,0.29719 -1.91855,0.0127 -3.93067,-0.20215 -3.34774,-0.35746 0.20458,-0.0545 0.53935,-0.056 0.74394,-0.003 0.20458,0.0527 0.7737,0.01 1.2647,-0.0958 0.491,-0.10538 1.13986,-0.19396 1.44191,-0.19683 0.88515,-0.008 0.83594,-0.2986 -0.0568,-0.33513 -2.26979,-0.0929 -4.0431,0.16427 -3.88969,0.56405 0.0541,0.14106 -0.17441,0.22279 -0.83059,0.29702 -0.4979,0.0563 -0.90527,0.16073 -0.90527,0.23199 0,0.0713 -0.23435,0.12957 -0.52076,0.12957 -0.65909,0 -0.66039,-0.15471 -0.004,-0.50805 0.5811,-0.31294 0.55339,-0.59132 -0.0471,-0.47318 -0.21725,0.0427 -0.6963,0.0918 -1.06455,0.10896 -0.36825,0.0172 -0.77624,0.12094 -0.90665,0.23057 -0.14995,0.12606 -0.77478,0.22143 -1.70004,0.25948 -0.90382,0.0372 -1.38187,0.009 -1.25079,-0.0741 0.11668,-0.0739 0.32933,-0.1353 0.47254,-0.13655 0.14321,-0.001 0.26038,-0.058 0.26038,-0.12611 0,-0.15029 -0.99926,-0.47239 -1.24091,-0.39999 -0.51469,0.1542 -1.14416,0.20503 -1.07089,0.0865 0.046,-0.0744 -0.0344,-0.16113 -0.17859,-0.19272 -0.29106,-0.0638 -0.93175,0.1702 -0.93175,0.34024 0,0.16959 -0.69741,0.30391 -1.83525,0.35346 -0.75278,0.0328 -1.09021,0.11264 -1.21876,0.28843 -0.18136,0.24803 -0.60121,0.35107 -0.45294,0.11116 0.0448,-0.0726 -0.001,-0.19233 -0.10281,-0.26615 -0.28896,-0.21039 -2.68287,-0.0741 -3.08716,0.17578 -0.0697,0.0431 -0.16909,0.01 -0.22078,-0.0737 -0.0517,-0.0836 -0.37435,-0.15216 -0.71702,-0.15227 -0.34268,-1.2e-4 -0.72348,-0.003 -0.84623,-0.007 -0.12275,-0.004 -0.61354,0.0154 -1.09063,0.0428 -0.69842,0.0401 -0.91806,0.11692 -1.12711,0.39407 -0.18243,0.24186 -0.42092,0.34881 -0.80186,0.3596 -0.29821,0.008 -0.5892,-0.0316 -0.64663,-0.0891 -0.0574,-0.0574 0.0981,-0.35521 0.34552,-0.66171 0.40581,-0.50262 0.53603,-0.56532 1.32737,-0.63916 0.48259,-0.045 1.13342,-0.19432 1.44629,-0.33174 0.33161,-0.14565 1.0989,-0.27445 1.83966,-0.30882 0.69893,-0.0324 1.31335,-0.1232 1.36538,-0.20173 0.052,-0.0785 0.22851,-0.21872 0.39218,-0.31153 0.27055,-0.15343 0.27304,-0.16916 0.0274,-0.17327 -0.14859,-0.002 -0.39816,0.064 -0.55461,0.1477 -0.22951,0.12283 -0.26765,0.10846 -0.19748,-0.0744 0.0478,-0.12465 0.19697,-0.22965 0.33143,-0.23334 0.13445,-0.004 0.44532,-0.1023 0.69082,-0.21912 l 0.44637,-0.21242 -0.44637,0.0229 c -0.2455,0.0126 -0.60464,-0.0296 -0.7981,-0.0939 -0.48541,-0.16116 -2.84248,0.33611 -3.22878,0.68118 -0.36096,0.32243 -0.62537,0.36807 -0.37338,0.0644 0.25981,-0.31305 -0.0332,-0.42553 -0.85139,-0.32679 -1.40255,0.16927 -1.86572,0.1638 -1.92791,-0.0228 -0.0358,-0.10737 0.068,-0.18443 0.24849,-0.18443 0.21078,0 0.30997,-0.0952 0.30997,-0.29758 0,-0.34706 -0.097,-0.36425 -0.6316,-0.11194 -0.2245,0.10595 -0.38094,0.29353 -0.36444,0.437 0.0159,0.13826 -0.005,0.25088 -0.0455,0.25028 -0.0409,-6e-4 -0.24598,0.0641 -0.45569,0.14387 -0.35942,0.13665 -0.37778,0.12096 -0.31991,-0.27335 0.0699,-0.47647 -0.18778,-0.59827 -0.93547,-0.44215 -0.2455,0.0513 -1.09367,0.0829 -1.88483,0.0703 -1.38468,-0.022 -1.44457,-0.009 -1.60137,0.33466 -0.21361,0.46884 -0.0667,0.67921 0.39363,0.56367 0.23252,-0.0583 0.51108,-0.002 0.7446,0.15124 0.37886,0.24823 0.91064,0.28529 2.99422,0.20867 0.80721,-0.0297 1.12606,0.0139 1.22066,0.16699 0.20065,0.32467 -0.36676,0.81012 -1.16262,0.99469 -0.38736,0.0898 -0.8382,0.21287 -1.00186,0.2734 -0.28601,0.10579 -0.28746,0.0985 -0.0372,-0.18726 0.34248,-0.39107 0.32947,-0.54985 -0.0372,-0.45397 -0.33851,0.0885 -0.3849,-0.0444 -0.11159,-0.31974 0.14912,-0.15023 0.13438,-0.16772 -0.0744,-0.0882 -0.14321,0.0545 -0.26038,0.19691 -0.26038,0.31642 0,0.14031 -0.0935,0.18763 -0.26379,0.13357 -0.14509,-0.046 -0.47986,-0.0218 -0.74395,0.054 -0.26408,0.0757 -0.48015,0.0826 -0.48015,0.0152 0,-0.21773 -0.47798,-0.3133 -0.68939,-0.13785 -0.13103,0.10875 -0.46791,0.13556 -0.9311,0.0741 -0.39918,-0.053 -0.89853,-0.0306 -1.10966,0.0497 -0.21796,0.0829 -0.4189,0.0893 -0.46491,0.0148 -0.088,-0.1424 -1.61049,-0.062 -2.47546,0.13067 -0.29552,0.0658 -0.86463,0.0603 -1.2647,-0.0122 -0.67147,-0.12177 -3.85748,-0.22285 -4.89347,-0.15524 -0.2455,0.016 -2.05942,-0.007 -4.03093,-0.051 -3.09883,-0.0693 -3.6101,-0.0494 -3.77308,0.147 -0.15891,0.19148 -0.12615,0.25088 0.20857,0.37814 0.2184,0.083 0.35745,0.21513 0.30898,0.29354 -0.0485,0.0784 -0.1864,0.10486 -0.30653,0.0588 -0.12013,-0.0461 -0.33559,-0.0351 -0.4788,0.0243 -0.40584,0.1686 -1.05422,0.184 -2.30978,0.0549 -0.63617,-0.0654 -1.28717,-0.0707 -1.44667,-0.0117 -0.15949,0.059 -0.774212,0.0713 -1.366032,0.0273 -1.32656,-0.0986 -2.08996,-0.0207 -2.01065,0.20501 0.0326,0.0929 0.16957,0.14925 0.30428,0.12521 0.29205,-0.0521 0.33044,0.20226 0.0469,0.31105 -0.36818,0.141283 -4.60083,-0.0222 -4.76259,-0.184 -0.32254,-0.32255 0.10809,-0.45335 1.02215,-0.31047 1.44653,0.22611 2.71743,0.24296 2.92166,0.0387 0.14557,-0.14557 0.13121,-0.18357 -0.0694,-0.18357 -0.13912,0 -0.25294,-0.0611 -0.25294,-0.13571 0,-0.12973 0.78412,-0.2869 1.41349,-0.28333 1.18442,0.007 5.034802,-0.1769 5.101172,-0.24326 0.0453,-0.0453 0.19991,0.0242 0.34367,0.15426 0.30946,0.28005 0.80429,0.2252 0.80429,-0.0892 0,-0.1548 -0.14506,-0.21456 -0.48356,-0.19921 -0.66002,0.0299 -0.68698,-0.48727 -0.0372,-0.71378 0.67947,-0.23686 0.53367,-0.42789 -0.29893,-0.39167 -0.56488,0.0246 -0.81677,0.11463 -1.04054,0.37199 -0.16238,0.18675 -0.3459,0.3441 -0.40782,0.34966 -0.75205,0.0675 -1.49516,0.0563 -1.674852,-0.0252 -0.12275,-0.0557 -1.0936,-0.0542 -2.15744,0.003 -1.54561,0.0836 -1.97547,0.0636 -2.13942,-0.0992 -0.11926,-0.11846 -0.30616,-0.15831 -0.44637,-0.0952 -0.13265,0.0597 -0.54249,0.12223 -0.91074,0.13891 -0.36825,0.0167 -0.8202,0.0799 -1.00432,0.14051 -0.21767,0.0716 -0.33478,0.05 -0.33478,-0.0618 0,-0.1216 -0.50793,-0.16553 -1.73272,-0.14985 -1.80302,0.0231 -2.77181,0.24311 -2.40423,0.54606 0.19378,0.15971 3.1723,0.12879 3.69908,-0.0384 0.15147,-0.0481 0.29053,0.015 0.34481,0.15649 0.05,0.13037 0.16629,0.19049 0.25835,0.13359 0.35111,-0.21699 1.24136,-0.34215 1.4141,-0.19879 0.0968,0.0804 0.40714,0.16686 0.68955,0.1922 0.66614,0.0598 0.96323,0.2303 0.69263,0.39754 -0.10713,0.0662 -0.24332,0.0904 -0.30266,0.0537 -0.1072,-0.0662 -2.87418,-0.25366 -3.51444,-0.23803 -1.69222,0.0413 -3.11369,0.0522 -3.23615,0.0248 -0.0818,-0.0183 -0.21574,-0.0187 -0.29758,-0.001 -0.0818,0.0178 -0.31617,0.0424 -0.52076,0.0548 -0.29536,0.0179 -0.36238,0.0915 -0.32542,0.35731 0.0278,0.20014 -0.032,0.33559 -0.14879,0.3368 -0.10743,10e-4 -0.34599,0.0424 -0.53011,0.0918 -0.28161,0.0755 -0.33478,0.0308 -0.33478,-0.28101 0,-0.29618 -0.0935,-0.38942 -0.46496,-0.46372 -0.69126,-0.13825 -0.72534,-0.12514 -0.72534,0.279 0,0.35982 -0.0304,0.37115 -0.92993,0.34656 -0.51364,-0.014 -1.08638,0.0584 -1.27941,0.16188 -0.33837,0.18135 -0.34628,0.17276 -0.24899,-0.27018 0.14068,-0.64054 -0.28707,-0.82294 -1.48614,-0.6337 -0.49014,0.0774 -0.9916,0.091 -1.11435,0.0303 -0.12275,-0.0607 -1.42837,-0.085 -2.90137,-0.0541 -1.47301,0.0309 -3.07993,0.0414 -3.57093,0.0233 -0.491,-0.0181 -1.39489,-0.0369 -2.00865,-0.0417 -1.01963,-0.008 -1.11591,0.0169 -1.11591,0.28885 0,0.33797 -0.38413,0.47592 -1.4011,0.50316 -0.77838,0.0209 -0.73792,-0.10906 0.066,-0.21199 0.65159,-0.0834 1.04519,-0.34299 0.83653,-0.55166 -0.2416,-0.24154 -6.42012,-0.18569 -6.42012,0.0581 0,0.0704 -0.10254,0.12805 -0.22786,0.12805 -0.12532,0 -0.26639,0.10044 -0.31349,0.22319 -0.0471,0.12275 -0.22913,0.22105 -0.4045,0.21845 -0.30735,-0.005 -0.30878,-0.0124 -0.0398,-0.21604 0.15347,-0.11621 0.24112,-0.3101 0.19478,-0.43086 -0.0689,-0.17951 -0.30982,-0.20325 -1.32056,-0.13012 -0.67997,0.0492 -1.40369,0.0865 -1.60828,0.0828 -3.27579,-0.0584 -3.54096,-0.0514 -4.88982,0.13042 -0.77316,0.1042 -1.14328,0.10012 -1.25727,-0.0139 -0.21141,-0.21141 -1.03772,-0.20787 -1.25095,0.005 -0.0918,0.0918 -0.1273,0.27018 -0.0789,0.39638 0.0578,0.15065 0.0283,0.19251 -0.086,0.12188 -0.0957,-0.0592 -0.17408,-0.0367 -0.17408,0.05 0,0.0867 -0.11717,0.15544 -0.26038,0.15284 -0.23958,-0.004 -0.23809,-0.0216 0.0187,-0.21604 0.16941,-0.12828 0.24245,-0.30666 0.18591,-0.454 -0.11862,-0.30912 -0.4237,-0.21542 -0.60541,0.18593 -0.0773,0.17063 -0.38631,0.38391 -0.68681,0.47394 -0.67069,0.20094 -0.73501,0.20224 -0.73501,0.0149 0,-0.0818 0.13391,-0.14879 0.29758,-0.14879 0.28196,0 0.38864,-0.15691 0.2208,-0.32476 -0.0422,-0.0422 -0.42722,0.0173 -0.85554,0.13218 -0.42831,0.11492 -1.39953,0.27063 -2.15824,0.34603 -0.75872,0.0754 -1.49823,0.20062 -1.64335,0.27829 -0.25231,0.135033 -1.48319,0.200383 -3.0775,0.163393 -0.40917,-0.01 -1.04524,0.0487 -1.41349,0.12934 -0.77528,0.16975 -3.02653,0.0698 -3.09976,-0.13762 -0.0584,-0.165493 -0.76876,-0.192183 -0.76872,-0.0289 2e-5,0.0614 -0.65279,0.11159 -1.45069,0.11159 -0.79789,0 -1.68505,0.0474 -1.97147,0.10539 -0.33147,0.0671 -0.65597,0.0354 -0.89273,-0.0872 z m 49.99297,-1.134113 c 0,-0.0818 -0.067,-0.14878 -0.14879,-0.14878 -0.0818,0 -0.14879,0.0669 -0.14879,0.14878 0,0.0818 0.067,0.14879 0.14879,0.14879 0.0818,0 0.14879,-0.0669 0.14879,-0.14879 z m 46.347662,0 c 0.0506,-0.0818 0.025,-0.14878 -0.0568,-0.14878 -0.0818,0 -0.19017,0.0669 -0.24075,0.14878 -0.0506,0.0818 -0.025,0.14879 0.0568,0.14879 0.0818,0 0.19016,-0.0669 0.24074,-0.14879 z m -55.010512,-0.67828 c 0.35053,-0.24552 0.45483,-0.8099 0.14968,-0.8099 -0.0996,0 -0.45961,0.10639 -0.8001,0.23643 -0.54889,0.20962 -0.66757,0.21165 -1.0465,0.0179 -0.28479,-0.1456 -0.53917,-0.17642 -0.76234,-0.0924 -0.18422,0.0694 -0.4353,0.0876 -0.55796,0.0406 -0.3568,-0.13692 -0.25728,0.21453 0.1332,0.47038 0.20804,0.13631 0.50202,0.19709 0.70674,0.14612 0.1928,-0.048 0.61835,-0.0243 0.94569,0.0527 0.83891,0.19725 0.86353,0.19601 1.23159,-0.0618 z m 12.79582,0 c 0.57459,-0.40246 0.40906,-0.62511 -0.52485,-0.70596 -1.71299,-0.14828 -2.36579,-0.12272 -2.55055,0.0999 -0.13524,0.16296 -0.13687,0.24224 -0.007,0.32273 0.095,0.0587 0.22093,0.0286 0.27993,-0.0669 0.14513,-0.23482 1.34734,-0.0417 1.34734,0.21647 0,0.39821 0.95222,0.48574 1.45478,0.13374 z m -17.4653,-0.0983 0.46212,0.0118 -0.37198,-0.21133 c -0.3571,-0.20288 -1.34641,-0.16698 -1.71106,0.0621 -0.17141,0.10767 0.82491,0.29548 1.02576,0.19336 0.0732,-0.0372 0.34099,-0.0624 0.59516,-0.0559 z m 5.82879,0.0157 c 0.0562,-0.091 0.0136,-0.22023 -0.0948,-0.2872 -0.21771,-0.13455 -0.73383,0.0828 -0.73383,0.30907 0,0.19939 0.70334,0.18083 0.82862,-0.0219 z m 6.35043,-0.064 c 0.85354,-0.15402 0.73176,-0.51449 -0.17382,-0.51449 -0.40247,0 -0.84167,-0.0422 -0.976,-0.0937 -0.1691,-0.0649 -0.26972,0.004 -0.3271,0.22318 -0.0956,0.36539 -0.34574,0.42833 -0.34574,0.087 0,-0.18343 -0.11283,-0.21067 -0.55796,-0.13468 -0.8537,0.14574 -1.51854,0.4036 -1.42612,0.55314 0.0871,0.14088 2.84157,0.0538 3.80674,-0.12041 z m -5.08384,-0.21692 c 0.0751,0 0.13662,-0.10509 0.13662,-0.23353 0,-0.33944 -0.65301,-0.20922 -0.72032,0.14365 -0.0405,0.21261 0.008,0.25842 0.19664,0.18599 0.13774,-0.0529 0.31192,-0.0961 0.38706,-0.0961 z m 56.893132,0.0103 c 0.0471,-0.0762 0.0143,-0.18255 -0.0727,-0.23637 -0.2202,-0.13609 -0.62968,0.0422 -0.51671,0.22503 0.11629,0.18817 0.47588,0.19508 0.58945,0.0113 z m -6.98671,-0.15907 c 0.0506,-0.0818 -0.0124,-0.14879 -0.14001,-0.14879 -0.12758,0 -0.23197,0.0669 -0.23197,0.14879 0,0.0818 0.063,0.14878 0.14001,0.14878 0.077,0 0.18139,-0.067 0.23197,-0.14878 z m 18.42088,-0.0618 c 0.63877,-0.11258 1.27484,-0.30715 1.41349,-0.43236 0.28386,-0.25637 2.48391,-0.34178 2.63199,-0.10219 0.0465,0.0753 0.18293,0.0992 0.30306,0.0531 0.12013,-0.0461 0.21842,-0.0217 0.21842,0.0542 0,0.17077 2.24838,0.0839 3.00311,-0.11598 0.30146,-0.0799 0.87057,-0.13853 1.26471,-0.13039 0.39412,0.008 0.95049,-0.0574 1.23637,-0.14571 0.28588,-0.0883 0.78804,-0.16152 1.11592,-0.16277 0.32787,-0.001 0.68697,-0.0598 0.79801,-0.13019 0.31356,-0.19869 -0.0464,-0.34184 -0.60852,-0.24203 -0.98222,0.17441 -2.25785,0.19498 -2.63152,0.0424 -0.56172,-0.22931 -1.64317,-0.27651 -1.99697,-0.0872 -0.20074,0.10743 -0.32433,0.11244 -0.35699,0.0145 -0.0551,-0.16523 -1.19889,10e-4 -1.64324,0.2388 -0.14965,0.0801 -1.24507,0.10631 -2.56448,0.0614 -3.91622,-0.13335 -3.88048,-0.13519 -4.64648,0.23869 -0.46955,0.22918 -0.88309,0.32425 -1.23278,0.28343 -0.40698,-0.0475 -0.51655,-0.0112 -0.48352,0.16029 0.0844,0.43838 1.20983,0.54986 2.31127,0.22895 0.24934,-0.0727 0.33477,-0.0362 0.33477,0.143 0,0.28917 0.0565,0.29027 1.53338,0.03 z m -4.87803,-0.2308 c -0.0387,-0.0626 -0.24649,-0.0802 -0.46173,-0.0391 -0.22683,0.0434 -0.43953,-0.003 -0.50595,-0.11062 -0.0909,-0.14712 -0.2311,-0.14365 -0.67848,0.0168 l -0.56387,0.20225 0.50831,0.0744 c 0.66424,0.0972 1.79179,0.002 1.70172,-0.14378 z m -2.30931,-0.67456 c 0.15062,-0.18149 0.14359,-0.22318 -0.0376,-0.22318 -0.45801,0 -1.15273,0.19055 -1.15273,0.31617 0,0.2211 0.99409,0.14343 1.19031,-0.093 z m 1.1903,0.0744 c 0,-0.0818 -0.0669,-0.14879 -0.14878,-0.14879 -0.0818,0 -0.14879,0.067 -0.14879,0.14879 0,0.0818 0.067,0.14879 0.14879,0.14879 0.0818,0 0.14878,-0.0669 0.14878,-0.14879 z m -16.91019,-0.92943 c -0.0384,-0.0621 -0.19102,-0.048 -0.33922,0.0313 -0.14819,0.0793 -0.60943,0.12971 -1.02496,0.112 -0.44207,-0.0189 -0.83169,0.0439 -0.93911,0.15129 -0.26845,0.26833 -0.12484,0.33453 0.81395,0.37518 0.46329,0.0201 0.84237,0.0904 0.84241,0.15636 4e-5,0.0659 0.16131,-0.0676 0.35839,-0.29668 0.19707,-0.22912 0.32692,-0.46737 0.28854,-0.52946 z m 41.01346,0.66905 c 0,-0.10229 0.0674,-0.18598 0.14928,-0.18598 0.0818,0 0.14879,-0.0691 0.14879,-0.15355 0,-0.19019 -1.39572,-0.0965 -1.97145,0.13234 -0.72364,0.28762 -0.46226,0.46468 0.63186,0.42804 0.71473,-0.0239 1.04119,-0.0932 1.04152,-0.22085 z m 17.08263,-0.13731 c 0.0423,-0.2954 -0.004,-0.31403 -0.59516,-0.24006 -0.85872,0.10743 -1.01453,0.28923 -0.40086,0.46769 0.69637,0.20252 0.9425,0.14627 0.99602,-0.22763 z m -13.58561,0.0863 c 0.43432,-0.0155 0.43632,-0.0189 0.0744,-0.12661 -0.55683,-0.16575 -2.23476,-0.0667 -2.43167,0.14359 -0.13605,0.14527 0.0462,0.16442 0.86939,0.0913 0.57283,-0.0508 1.24238,-0.0996 1.48788,-0.10833 z m 6.90614,-0.0442 c 0.28821,-0.009 0.53799,-0.10545 0.57695,-0.2221 0.0552,-0.16546 -0.0734,-0.18521 -0.65702,-0.10092 -1.07851,0.15576 -1.39528,0.24862 -1.39528,0.40899 0,0.0858 0.1965,0.10098 0.48356,0.0374 0.26596,-0.0589 0.71226,-0.1144 0.99179,-0.12341 z m 4.99695,0.058 c 0.0506,-0.0818 -0.0459,-0.14879 -0.2144,-0.14879 -0.16849,0 -0.30636,0.067 -0.30636,0.14879 0,0.0818 0.0965,0.14878 0.2144,0.14878 0.11792,0 0.25579,-0.067 0.30636,-0.14878 z m -8.93949,-0.23911 c 0.12945,-0.0497 0.23536,-0.15492 0.23536,-0.23389 0,-0.15615 -1.50079,-0.017 -2.00865,0.18625 -0.19963,0.0799 0.004,0.1222 0.62018,0.12853 0.50477,0.005 1.02367,-0.0312 1.15311,-0.0809 z m 2.08891,-0.31885 c 0.0392,-0.10229 0.20342,-0.18599 0.36482,-0.18599 0.16141,0 0.33485,-0.067 0.38543,-0.14879 0.0517,-0.0837 -0.0671,-0.14878 -0.27171,-0.14878 -0.46758,0 -1.88573,0.45603 -1.88573,0.60639 0,0.19327 1.33044,0.0771 1.40719,-0.12283 z m 7.88241,-0.1823 c 0.20991,-0.0798 0.38166,-0.23939 0.38166,-0.35462 0,-0.11523 0.15065,-0.2579 0.33478,-0.31703 0.27246,-0.0875 0.28817,-0.1201 0.0844,-0.17513 -0.1377,-0.0372 -0.45242,0.0369 -0.69935,0.16456 -0.24693,0.12769 -0.5728,0.23217 -0.72417,0.23217 -0.28214,0 -0.6323,0.26367 -0.6323,0.47612 0,0.16554 0.79445,0.14903 1.25501,-0.0261 z m -68.20989,-0.24279 c 0,-0.1569 -0.0809,-0.20805 -0.23535,-0.14879 -0.12944,0.0497 -0.2673,0.0903 -0.30636,0.0903 -0.039,0 -0.0296,0.067 0.0209,0.14878 0.14652,0.23708 0.52076,0.17218 0.52076,-0.0903 z m 2.27146,-0.009 c 0.0627,-0.0386 0.0706,-0.14041 0.0176,-0.22623 -0.0583,-0.0943 -0.35856,-0.12012 -0.75871,-0.0653 -0.77453,0.10616 -0.97559,0.20488 -0.84561,0.4152 0.0882,0.14267 1.30857,0.0475 1.58674,-0.1237 z m 0.8531,-0.0584 c 0,-0.077 -0.067,-0.14 -0.14878,-0.14 -0.0818,0 -0.14879,0.10438 -0.14879,0.23196 0,0.12758 0.067,0.19059 0.14879,0.14001 0.0818,-0.0506 0.14878,-0.15496 0.14878,-0.23197 z m -12.49825,-0.3814 c 0,-0.24766 -0.11215,-0.25413 -0.72174,-0.0416 -0.57747,0.2013 -0.60232,0.3952 -0.0594,0.46355 0.46001,0.0579 0.78114,-0.11555 0.78114,-0.42193 z m 8.48096,0.39019 c 0,-0.0818 -0.10043,-0.14879 -0.22318,-0.14879 -0.12275,0 -0.22318,0.0669 -0.22318,0.14879 0,0.0818 0.10043,0.14878 0.22318,0.14878 0.12275,0 0.22318,-0.0669 0.22318,-0.14878 z m -14.878872,-0.14879 c 0,-0.0818 -0.10043,-0.14879 -0.22318,-0.14879 -0.12275,0 -0.22318,0.067 -0.22318,0.14879 0,0.0818 0.10043,0.14879 0.22318,0.14879 0.12275,0 0.22318,-0.067 0.22318,-0.14879 z m -53.26632,-0.0656 c 0,-0.0361 -0.067,-0.10699 -0.14879,-0.15757 -0.0818,-0.0506 -0.14879,-0.0211 -0.14879,0.0656 0,0.0867 0.067,0.15757 0.14879,0.15757 0.0818,0 0.14879,-0.0295 0.14879,-0.0656 z m 50.06101,-0.0729 c 0.0471,-0.0762 0.0176,-0.18056 -0.0656,-0.23196 -0.0832,-0.0514 -0.15122,0.0109 -0.15122,0.1385 0,0.26135 0.0893,0.29984 0.21683,0.0935 z m 1.08988,-0.13608 c 0.0426,-0.12805 -0.0289,-0.18167 -0.19852,-0.14879 -0.14586,0.0283 -0.29519,0.14149 -0.33185,0.2516 -0.0426,0.12805 0.0289,0.18167 0.19852,0.14879 0.14585,-0.0283 0.29519,-0.1415 0.33185,-0.2516 z m 67.392162,-0.73815 c 0.0999,-0.0635 -0.21493,-0.11027 -0.69971,-0.10394 -0.48478,0.006 -0.92923,0.0593 -0.98764,0.11773 -0.14439,0.14438 1.45903,0.13128 1.68735,-0.0138 z m 23.55008,-1.03216 c 0.44495,-0.0776 0.60392,-0.15839 0.47391,-0.24096 -0.10761,-0.0683 -0.43542,-0.0793 -0.72847,-0.0243 -0.36988,0.0694 -0.5698,0.0402 -0.65371,-0.0956 -0.0962,-0.15574 -0.15847,-0.15794 -0.30561,-0.0108 -0.22067,0.22067 -0.47904,0.24733 -0.3484,0.0359 0.0506,-0.0818 0.0553,-0.14879 0.0104,-0.14879 -0.14524,0 -0.68002,0.50853 -0.68002,0.64665 0,0.13255 0.92789,0.0651 2.23183,-0.16214 z m 3.34774,-1.52603 c -0.0506,-0.0818 -0.15496,-0.14879 -0.23196,-0.14879 -0.077,0 -0.14001,0.067 -0.14001,0.14879 0,0.0818 0.10439,0.14879 0.23196,0.14879 0.12759,0 0.19059,-0.067 0.14001,-0.14879 z m -5.65396,-0.91901 c 1.14576,-0.0992 1.71532,-0.0935 1.8989,0.0191 0.37954,0.23279 1.7805,-0.23418 1.71068,-0.57021 -0.0303,-0.1457 -0.16541,-0.22172 -0.34193,-0.19237 -0.16053,0.0267 -0.72709,0.0846 -1.25901,0.12866 -0.53192,0.0441 -1.04259,0.14077 -1.13484,0.2149 -0.0922,0.0741 -0.89569,0.14019 -1.78546,0.14682 -1.7083,0.0127 -2.63026,0.24487 -1.76654,0.44478 0.2455,0.0568 0.58028,0.0688 0.74394,0.0267 0.16367,-0.0421 1.03409,-0.14039 1.93426,-0.21836 z m 3.03267,-1.74845 c 1.07821,-0.16955 1.35031,-0.30831 0.6046,-0.30831 -0.6683,0 -2.07499,0.33233 -2.07499,0.49022 0,0.0687 0.11717,0.0895 0.26038,0.0462 0.14321,-0.0433 0.68771,-0.14598 1.21001,-0.22812 z m -2.90638,-1.3014 c 0.28341,-0.0525 0.37442,-0.12799 0.27465,-0.22776 -0.16845,-0.16844 -1.4097,-0.008 -1.30085,0.16772 0.0859,0.13895 0.47687,0.16183 1.0262,0.06 z m 6.84618,-0.12283 c 0.0471,-0.12275 0.25514,-0.22318 0.46228,-0.22318 0.46911,0 0.49392,-0.33612 0.0419,-0.56724 -0.33052,-0.16898 -1.91031,-0.15685 -2.34342,0.018 -0.12275,0.0495 -0.42348,0.10971 -0.66827,0.13368 -0.26734,0.0262 -0.46323,0.13939 -0.49052,0.28346 -0.0342,0.18051 0.11186,0.26095 0.59027,0.32512 0.36104,0.0484 0.71773,0.0172 0.82557,-0.0723 0.13622,-0.11305 0.32646,-0.0903 0.67316,0.0807 0.60653,0.299 0.80092,0.30367 0.90906,0.0218 z m -5.47274,-0.33533 c -0.10509,-0.10508 -0.6814,0.12139 -0.6814,0.26778 0,0.0746 0.16767,0.0592 0.3726,-0.0342 0.20494,-0.0934 0.3439,-0.19848 0.3088,-0.23358 z M 74.769098,86.874457 c 0,-0.0818 -0.067,-0.14879 -0.14879,-0.14879 -0.0818,0 -0.14878,0.067 -0.14878,0.14879 0,0.0818 0.067,0.14879 0.14878,0.14879 0.0818,0 0.14879,-0.067 0.14879,-0.14879 z m 115.856752,-0.66955 c 0,-0.23699 -0.4736,-0.31121 -0.60714,-0.0952 -0.1069,0.17297 0.0571,0.31833 0.35915,0.31833 0.13639,0 0.24799,-0.10043 0.24799,-0.22318 z M 15.253658,85.758537 c 0,-0.12275 -0.10043,-0.22318 -0.22318,-0.22318 -0.23235,0 -0.29519,0.17597 -0.12399,0.34717 0.1712,0.17121 0.34717,0.10836 0.34717,-0.12399 z m 34.37017,-2.00864 c 0,-0.0818 -0.067,-0.14879 -0.14879,-0.14879 -0.0818,0 -0.2827,-0.13391 -0.44637,-0.29758 -0.16366,-0.16367 -0.38127,-0.29229 -0.48356,-0.28583 -0.14879,0.009 -0.14879,0.0268 0,0.0868 0.10229,0.0413 0.18599,0.15403 0.18599,0.25055 0,0.0965 0.15065,0.25012 0.33477,0.34131 0.44535,0.22056 0.55796,0.23137 0.55796,0.0536 z m 133.165812,-0.66077 c 0,-0.0361 -0.0669,-0.10699 -0.14879,-0.15757 -0.0818,-0.0506 -0.14879,-0.0211 -0.14879,0.0656 0,0.0867 0.067,0.15757 0.14879,0.15757 0.0818,0 0.14879,-0.0295 0.14879,-0.0656 z m -86.496442,-1.45947 c -0.0413,-0.10229 -0.0751,-0.0186 -0.0751,0.18599 0,0.20458 0.0338,0.28827 0.0751,0.18598 0.0413,-0.10229 0.0413,-0.26968 0,-0.37197 z m -52.241,-0.4434 c -0.13939,-0.078 -0.2967,-0.0986 -0.34957,-0.0457 -0.13092,0.13092 0.29277,0.3793 0.46522,0.27272 0.0758,-0.0469 0.0238,-0.149 -0.11565,-0.22701 z m 139.035022,0.10863 c 0,-0.12276 -0.063,-0.22319 -0.14001,-0.22319 -0.18762,0 -0.322,0.23235 -0.20311,0.35122 0.16755,0.16756 0.34312,0.10205 0.34312,-0.12803 z M 48.882708,80.845107 c 0.15724,-0.18946 0.14804,-0.21123 -0.0562,-0.13287 -0.13432,0.0516 -0.24422,0.15351 -0.24422,0.22659 0,0.19134 0.0861,0.16447 0.3004,-0.0937 z m -34.2242,-0.21977 c 0,-0.0818 -0.063,-0.14879 -0.14001,-0.14879 -0.077,0 -0.18139,0.067 -0.23197,0.14879 -0.0506,0.0818 0.0124,0.14879 0.14001,0.14879 0.12758,0 0.23197,-0.067 0.23197,-0.14879 z m 26.87954,-0.37081 c -0.0946,-0.20395 -0.25568,-0.37134 -0.35798,-0.37198 -0.25705,-0.002 -0.23263,0.14976 0.0744,0.46108 0.37113,0.37631 0.48313,0.34112 0.28358,-0.0891 z m -21.00239,-0.0756 c 0.0506,-0.0818 -0.0164,-0.14879 -0.14879,-0.14879 -0.13241,0 -0.19937,0.067 -0.14879,0.14879 0.0506,0.0818 0.11753,0.14879 0.14879,0.14879 0.0313,0 0.0982,-0.067 0.14879,-0.14879 z m 0.81833,-0.35462 c 0,-0.0314 -0.134,-0.0921 -0.29778,-0.13491 -0.16378,-0.0428 -0.26026,-0.0172 -0.2144,0.057 0.0801,0.12958 0.51218,0.19528 0.51218,0.0779 z m 23.5086,-0.22461 c 0,-0.13182 -0.34926,-0.3135 -0.60265,-0.3135 -0.0726,0 -0.0934,0.10043 -0.0463,0.22318 0.091,0.23724 0.64896,0.31489 0.64896,0.0903 z m 12.14177,-0.2732 c -0.15124,-0.15125 -0.27604,0.0765 -0.15194,0.27725 0.0937,0.15167 0.12879,0.15179 0.17918,5.9e-4 0.0345,-0.10338 0.0222,-0.22841 -0.0272,-0.27785 z m 0.80284,0.25728 c 0,-0.0818 -0.067,-0.14879 -0.14879,-0.14879 -0.0818,0 -0.14879,0.0669 -0.14879,0.14879 0,0.0818 0.0669,0.14879 0.14879,0.14879 0.0818,0 0.14879,-0.067 0.14879,-0.14879 z m -24.24138,-0.18971 c -0.0184,-0.17791 -0.22248,-0.14345 -0.28642,0.0484 -0.0327,0.0982 0.0208,0.15176 0.11903,0.11903 0.0982,-0.0327 0.17353,-0.10806 0.16739,-0.16739 z m -7.45059,-0.10787 c 0,-0.0818 -0.0295,-0.14879 -0.0656,-0.14879 -0.0361,0 -0.107,0.067 -0.15757,0.14879 -0.0506,0.0818 -0.0211,0.14879 0.0656,0.14879 0.0867,0 0.15757,-0.067 0.15757,-0.14879 z m 6.5467,-0.16004 c 0,-0.0705 -0.10044,-0.0897 -0.22319,-0.0426 -0.12275,0.0471 -0.22318,0.14334 -0.22318,0.21385 0,0.0705 0.10043,0.0897 0.22318,0.0426 0.12275,-0.0471 0.22319,-0.14334 0.22319,-0.21385 z m 16.51553,-0.19601 c 0,-0.14115 -0.44538,-0.21228 -0.52477,-0.0838 -0.0484,0.0783 0.0499,0.14229 0.21841,0.14229 0.1685,0 0.30636,-0.0263 0.30636,-0.0585 z m 24.69891,-0.0903 c 0,-0.0818 -0.10043,-0.14879 -0.22318,-0.14879 -0.12275,0 -0.22318,0.067 -0.22318,0.14879 0,0.0818 0.10043,0.14879 0.22318,0.14879 0.12275,0 0.22318,-0.067 0.22318,-0.14879 z m -19.49131,-0.14879 c 0,-0.0818 -0.067,-0.14878 -0.14878,-0.14878 -0.0818,0 -0.14879,0.0669 -0.14879,0.14878 0,0.0818 0.067,0.14879 0.14879,0.14879 0.0818,0 0.14878,-0.0669 0.14878,-0.14879 z m 130.933992,0.0832 c 0,-0.15704 -0.28554,-0.22302 -0.37047,-0.0856 -0.0514,0.0832 0.0109,0.15121 0.13851,0.15121 0.12757,0 0.23196,-0.0295 0.23196,-0.0656 z M 51.483688,77.500777 c -0.0506,-0.0818 -0.15496,-0.14879 -0.23197,-0.14879 -0.077,0 -0.14001,0.0669 -0.14001,0.14879 0,0.0818 0.10439,0.14878 0.23197,0.14878 0.12758,0 0.19058,-0.067 0.14001,-0.14878 z m 10.78717,-0.14879 c 0,-0.0818 -0.067,-0.14879 -0.14879,-0.14879 -0.0818,0 -0.14879,0.067 -0.14879,0.14879 0,0.0818 0.067,0.14879 0.14879,0.14879 0.0818,0 0.14879,-0.067 0.14879,-0.14879 z m -12.38658,-0.48357 c -0.0341,-0.10229 -0.18816,-0.21044 -0.34244,-0.24034 -0.24269,-0.047 -0.25362,-0.022 -0.081,0.18599 0.23601,0.28437 0.51186,0.31978 0.42348,0.0543 z m 133.426122,-0.0908 c 0.43174,-0.13927 0.43418,-0.14504 0.0744,-0.17598 -1.63229,-0.14041 -2.09066,-0.0695 -1.86891,0.28935 0.11321,0.18318 1.06073,0.12332 1.79451,-0.11337 z m -2.15743,-0.61593 c 0,-0.18899 -0.4515,-0.18899 -0.74395,0 -0.16936,0.10945 -0.10656,0.14478 0.26038,0.14651 0.26596,10e-4 0.48357,-0.0647 0.48357,-0.14651 z m -160.147902,-1.1095 c -0.11993,-0.31253 -0.39556,-0.29093 -0.39274,0.0308 0.002,0.22252 0.0232,0.22793 0.14651,0.0372 0.12067,-0.18673 0.1446,-0.1766 0.14651,0.062 0.001,0.15685 0.044,0.24343 0.0951,0.19241 0.051,-0.051 0.0531,-0.1961 0.005,-0.32238 z M 185.44653,74.541321 c 0.11635,-0.07373 0.14139,-0.165286 0.0591,-0.216138 -0.0785,-0.04852 -0.2698,0.0079 -0.42506,0.125458 -0.21709,0.164328 -0.23074,0.214251 -0.0591,0.216137 0.12275,0.0013 0.31402,-0.05511 0.42506,-0.125457 z m -1.02021,-0.611475 c 0.16121,-0.10418 0.0245,-0.144864 -0.49235,-0.14651 -0.43964,-0.0014 -0.68006,0.05509 -0.62357,0.14651 0.11693,0.189205 0.82314,0.189205 1.11592,0 z M 33.257078,72.888326 c 0,-0.08183 -0.0709,-0.148789 -0.15757,-0.148789 -0.0867,0 -0.11619,0.06696 -0.0656,0.148789 0.0506,0.08183 0.12148,0.148789 0.15757,0.148789 0.0361,0 0.0656,-0.06695 0.0656,-0.148789 z m 17.0363,0 c -0.0506,-0.08183 -0.15891,-0.148789 -0.24075,-0.148789 -0.0818,0 -0.10741,0.06696 -0.0568,0.148789 0.0506,0.08183 0.15891,0.148789 0.24075,0.148789 0.0818,0 0.10741,-0.06695 0.0568,-0.148789 z m -21.11004,-0.5387 c 0.0188,-0.127881 -0.007,-0.19096 -0.0582,-0.140176 -0.0508,0.05078 -0.10769,0.196964 -0.12646,0.324845 -0.0188,0.12788 0.007,0.190959 0.0582,0.140175 0.0508,-0.05078 0.10769,-0.196964 0.12646,-0.324844 z m -13.03695,0.09233 c 0,-0.08183 -0.17134,-0.148788 -0.38075,-0.148788 -0.21595,0 -0.34095,0.0644 -0.2888,0.148788 0.0506,0.08183 0.22192,0.148789 0.38076,0.148789 0.15883,0 0.28879,-0.06696 0.28879,-0.148789 z m 117.957442,-0.05466 c 0.22817,-0.141017 3.3252,-0.286325 5.88395,-0.276067 1.9055,0.0076 2.24694,0.04528 2.50162,0.27576 0.28223,0.255414 0.32655,0.255684 1.02885,0.0062 0.58837,-0.208969 0.84822,-0.229884 1.31029,-0.105462 0.45024,0.121239 0.69352,0.10625 1.11175,-0.06849 0.60979,-0.254786 1.20262,-0.296456 1.06569,-0.07491 -0.15001,0.242725 0.83685,0.172491 1.66266,-0.118329 0.70386,-0.247873 0.74362,-0.287478 0.55187,-0.549711 -0.19424,-0.26564 -0.27549,-0.271024 -1.35433,-0.08975 -0.63124,0.106066 -1.16673,0.135833 -1.18999,0.06615 -0.0484,-0.14511 -1.79401,-0.119308 -2.57159,0.03801 -0.63101,0.127667 -0.7297,0.125363 -1.85985,-0.04343 -0.74483,-0.111239 -0.99931,-0.08724 -1.53598,0.144856 -0.58917,0.254796 -0.6834,0.259134 -1.12076,0.05159 -0.36405,-0.172752 -0.61778,-0.193347 -1.06782,-0.08667 -0.70747,0.167689 -2.15075,0.02651 -2.15712,-0.211005 -0.002,-0.09286 -0.0712,-0.05445 -0.15272,0.08536 -0.17088,0.293089 -0.5867,0.194796 -0.5867,-0.138684 0,-0.166755 -0.0862,-0.195918 -0.33477,-0.113208 -0.18413,0.06127 -0.53564,0.09763 -0.78114,0.08078 -0.94196,-0.06464 -1.21851,-0.03942 -2.11705,0.193005 -0.6689,0.173028 -1.03383,0.19901 -1.31164,0.09339 -0.26833,-0.102016 -0.48335,-0.09303 -0.70994,0.02967 -0.36095,0.195466 -1.14062,0.183867 -1.34449,-0.02 -0.139,-0.139002 -1.12789,0.278556 -1.13431,0.478965 -0.002,0.0628 0.45615,0.104722 1.01815,0.09317 0.56199,-0.01155 1.14433,0.04756 1.29407,0.131359 0.17596,0.09847 0.40257,0.102815 0.64071,0.01228 0.41301,-0.157028 1.20949,-0.03277 1.20949,0.188698 0,0.155597 1.78383,0.09161 2.0511,-0.07357 z m 44.51973,-0.09413 c 0,-0.08183 -0.0965,-0.148789 -0.2144,-0.148789 -0.11792,0 -0.25579,0.06695 -0.30636,0.148789 -0.0506,0.08183 0.0459,0.148788 0.2144,0.148788 0.16849,0 0.30636,-0.06696 0.30636,-0.148788 z M 47.130128,71.698017 c 0.0895,0 0.12762,-0.03505 0.0848,-0.0779 -0.17592,-0.175922 -0.54465,0.111183 -0.45026,0.35059 0.0894,0.226794 0.1023,0.225738 0.1503,-0.01231 0.0289,-0.143209 0.12571,-0.26038 0.21518,-0.26038 z m -30.09101,0 c 0,-0.08183 -0.067,-0.148788 -0.14879,-0.148788 -0.0818,0 -0.14878,0.06695 -0.14878,0.148788 0,0.08183 0.067,0.148789 0.14878,0.148789 0.0818,0 0.14879,-0.06695 0.14879,-0.148789 z m 133.463392,0 c 0,-0.188991 -0.4515,-0.188991 -0.74394,0 -0.16936,0.109449 -0.10657,0.144781 0.26038,0.14651 0.26596,0.0013 0.48356,-0.06468 0.48356,-0.14651 z M 23.065058,71.40044 c 0.0506,-0.08183 -0.0124,-0.148789 -0.14001,-0.148789 -0.12758,0 -0.23196,0.06696 -0.23196,0.148789 0,0.08183 0.063,0.148789 0.14001,0.148789 0.077,0 0.18139,-0.06695 0.23196,-0.148789 z m 46.79402,-0.06561 c 0,-0.03609 -0.0669,-0.106994 -0.14879,-0.15757 -0.0818,-0.05058 -0.14879,-0.02105 -0.14879,0.06561 0,0.08666 0.067,0.15757 0.14879,0.15757 0.0818,0 0.14879,-0.02953 0.14879,-0.06561 z m -30.84884,-0.299816 c 0,-0.119151 -0.0558,-0.182155 -0.12399,-0.140008 -0.0682,0.04215 -0.12399,0.139634 -0.12399,0.216638 0,0.077 0.0558,0.140007 0.12399,0.140007 0.0682,0 0.12399,-0.09749 0.12399,-0.216637 z m -10.07234,-0.223917 c 0.12038,-0.07613 0.18245,-0.174846 0.13793,-0.219367 -0.0445,-0.04452 -0.20997,0.01666 -0.36766,0.135967 -0.3137,0.23733 -0.12309,0.30653 0.22973,0.0834 z m 28.74779,-0.484415 c -0.10676,-0.106765 -0.17607,-0.11555 -0.17607,-0.02232 0,0.1986 0.17596,0.374559 0.27526,0.275259 0.0423,-0.04228 -0.002,-0.156104 -0.0992,-0.252941 z m 7.11458,0.115413 c 0,-0.03609 -0.0669,-0.106993 -0.14879,-0.15757 -0.0818,-0.05058 -0.14879,-0.02105 -0.14879,0.06561 0,0.08666 0.067,0.157569 0.14879,0.157569 0.0818,0 0.14879,-0.02953 0.14879,-0.06561 z m -8.8175,-0.483487 c -0.13834,-0.138338 -0.2933,-0.209748 -0.34436,-0.158688 -0.14643,0.146435 0.0784,0.410211 0.3496,0.410211 0.22712,0 0.22671,-0.01957 -0.005,-0.251523 z m -10.62,-0.269237 c -0.0963,-0.25101 -0.29149,-0.291685 -0.41793,-0.0871 -0.0463,0.07484 1e-5,0.16999 0.10281,0.211436 0.32956,0.132863 0.40273,0.103991 0.31512,-0.124334 z m -18.57406,-0.343236 c -0.0458,-0.04581 -0.16586,-9.5e-5 -0.26679,0.10159 -0.14585,0.146946 -0.12876,0.164037 0.0833,0.08329 0.14674,-0.05587 0.22931,-0.139071 0.1835,-0.184881 z m 56.90771,0.05444 c 0,-0.03609 -0.067,-0.106994 -0.14879,-0.15757 -0.0818,-0.05058 -0.14879,-0.02105 -0.14879,0.06561 0,0.08666 0.067,0.15757 0.14879,0.15757 0.0818,0 0.14879,-0.02953 0.14879,-0.06561 z m -68.81473,-0.529541 c 0.0506,-0.08183 0.0211,-0.148789 -0.0656,-0.148789 -0.0867,0 -0.15757,0.06696 -0.15757,0.148789 0,0.08183 0.0295,0.148788 0.0656,0.148788 0.0361,0 0.10699,-0.06696 0.15757,-0.148788 z m 17.99291,0.01701 c 0.0448,-0.07248 -0.0857,-0.163735 -0.2901,-0.202798 -0.30063,-0.05747 -0.33942,-0.03232 -0.20323,0.131774 0.19396,0.233707 0.37654,0.259993 0.49333,0.07102 z m 17.93954,0.06616 c 0,-0.03609 -0.067,-0.106994 -0.14879,-0.15757 -0.0818,-0.05058 -0.14879,-0.02105 -0.14879,0.06561 0,0.08666 0.067,0.157569 0.14879,0.157569 0.0818,0 0.14879,-0.02953 0.14879,-0.06561 z m 33.03107,-0.15757 c 0.10676,-0.128641 0.12122,-0.223183 0.0341,-0.223183 -0.0831,0 -0.18963,0.100433 -0.23673,0.223183 -0.0471,0.122751 -0.0625,0.223183 -0.0341,0.223183 0.0283,0 0.13485,-0.100432 0.23673,-0.223183 z m -23.65739,-0.07439 c 0,-0.08183 -0.0709,-0.148789 -0.15757,-0.148789 -0.0867,0 -0.11619,0.06695 -0.0656,0.148789 0.0506,0.08183 0.12148,0.148789 0.15757,0.148789 0.0361,0 0.0656,-0.06696 0.0656,-0.148789 z m -8.40656,-0.595154 c 0.0506,-0.08183 0.0211,-0.148789 -0.0656,-0.148789 -0.0867,0 -0.15757,0.06696 -0.15757,0.148789 0,0.08183 0.0295,0.148788 0.0656,0.148788 0.0361,0 0.107,-0.06696 0.15757,-0.148788 z m -17.11069,-0.148789 c 0.0506,-0.08183 -0.0164,-0.148789 -0.14879,-0.148789 -0.13241,0 -0.19936,0.06695 -0.14878,0.148789 0.0506,0.08183 0.11753,0.148789 0.14878,0.148789 0.0313,0 0.0982,-0.06696 0.14879,-0.148789 z m -14.36038,-0.11159 c -0.001,-0.06138 -0.0672,-0.212024 -0.14651,-0.334775 -0.11663,-0.180474 -0.14466,-0.15912 -0.14651,0.111592 -0.001,0.184126 0.0647,0.334774 0.14651,0.334774 0.0818,0 0.14777,-0.05022 0.14651,-0.111591 z m 24.84998,-0.0372 c 0,-0.08183 -0.063,-0.148788 -0.14001,-0.148788 -0.077,0 -0.18139,0.06696 -0.23196,0.148788 -0.0506,0.08183 0.0124,0.148789 0.14001,0.148789 0.12758,0 0.23196,-0.06695 0.23196,-0.148789 z m 56.837252,-0.288796 c 0,-0.077 -0.0609,-0.177653 -0.13536,-0.223665 -0.19227,-0.118829 -0.62337,0.07058 -0.52456,0.230475 0.1095,0.177173 0.65992,0.171494 0.65992,-0.0068 z M 54.831428,67.011176 c 0,-0.122752 -0.063,-0.223184 -0.14001,-0.223184 -0.18762,0 -0.32199,0.232348 -0.20312,0.35122 0.16756,0.167563 0.34313,0.102052 0.34313,-0.128036 z m 22.46708,0.15757 c 0,-0.03609 -0.067,-0.106994 -0.14879,-0.15757 -0.0818,-0.05058 -0.14879,-0.02105 -0.14879,0.06561 0,0.08666 0.067,0.15757 0.14879,0.15757 0.0818,0 0.14879,-0.02953 0.14879,-0.06561 z m -12.79582,-0.148789 c 0,-0.03609 -0.067,-0.106994 -0.14879,-0.157571 -0.0818,-0.05058 -0.14879,-0.02105 -0.14879,0.06561 0,0.08666 0.0669,0.15757 0.14879,0.15757 0.0818,0 0.14879,-0.02953 0.14879,-0.06561 z m -31.51343,-0.5593 c -0.0955,-0.09547 -0.22298,-0.124193 -0.28335,-0.06382 -0.0604,0.06037 -0.0132,0.169436 0.10481,0.242371 0.27787,0.171737 0.40335,0.04626 0.17854,-0.178547 z m 17.47018,-0.239921 c -0.22142,-0.221412 -0.24046,-0.215345 -0.24046,0.07661 0,0.174384 0.0837,0.346075 0.18599,0.381537 0.28791,0.09981 0.32239,-0.190218 0.0545,-0.458145 z m -22.40996,0.269679 c 0,-0.08183 -0.067,-0.148789 -0.14879,-0.148789 -0.0818,0 -0.14879,0.06695 -0.14879,0.148789 0,0.08183 0.067,0.148789 0.14879,0.148789 0.0818,0 0.14879,-0.06696 0.14879,-0.148789 z m 6.84428,0.09031 c 0,-0.141145 -0.44538,-0.21228 -0.52478,-0.08382 -0.0484,0.07826 0.0499,0.142291 0.21842,0.142291 0.16849,0 0.30636,-0.02631 0.30636,-0.05848 z m 2.75259,-0.09031 c 0.0506,-0.08183 -0.008,-0.148789 -0.13123,-0.148789 -0.12275,0 -0.26456,0.06695 -0.31514,0.148789 -0.0506,0.08183 0.008,0.148789 0.13123,0.148789 0.12275,0 0.26456,-0.06696 0.31514,-0.148789 z m 1.85985,0 c 0,-0.08183 -0.0709,-0.148789 -0.15757,-0.148789 -0.0867,0 -0.11619,0.06695 -0.0656,0.148789 0.0506,0.08183 0.12149,0.148789 0.15757,0.148789 0.0361,0 0.0656,-0.06696 0.0656,-0.148789 z m 9.52247,-0.140008 c 0,-0.077 -0.067,-0.181388 -0.14878,-0.231964 -0.0818,-0.05058 -0.14879,0.01243 -0.14879,0.140008 0,0.12758 0.067,0.231964 0.14879,0.231964 0.0818,0 0.14878,-0.063 0.14878,-0.140008 z m 10.71278,-0.0088 c 0,-0.08183 -0.0295,-0.148788 -0.0656,-0.148788 -0.0361,0 -0.10699,0.06695 -0.15757,0.148788 -0.0506,0.08183 -0.0211,0.148789 0.0656,0.148789 0.0867,0 0.15757,-0.06695 0.15757,-0.148789 z m -29.16256,-0.306339 c 0,-0.077 -0.10044,-0.140007 -0.22319,-0.140007 -0.23008,0 -0.29559,0.175565 -0.12803,0.343128 0.11887,0.118872 0.35122,-0.0155 0.35122,-0.203121 z m 24.10375,-0.0088 c 0,-0.08183 -0.067,-0.107409 -0.14879,-0.05683 -0.0818,0.05058 -0.14879,0.158912 -0.14879,0.240745 0,0.08183 0.067,0.107409 0.14879,0.05683 0.0818,-0.05058 0.14879,-0.158912 0.14879,-0.240745 z m -26.28468,-0.04926 c 0.0553,-0.144105 0.0112,-0.188168 -0.13287,-0.13287 -0.23535,0.09031 -0.29664,0.348476 -0.0827,0.348476 0.0731,0 0.1701,-0.09702 0.2156,-0.215606 z m 10.14112,0.06682 c 0.0506,-0.08183 0.021,-0.148788 -0.0656,-0.148788 -0.0867,0 -0.15757,0.06695 -0.15757,0.148788 0,0.08183 0.0295,0.148789 0.0656,0.148789 0.0361,0 0.10699,-0.06696 0.15757,-0.148789 z m 22.61587,0 c 0.0506,-0.08183 -0.0459,-0.148788 -0.21441,-0.148788 -0.16849,0 -0.30635,0.06695 -0.30635,0.148788 0,0.08183 0.0965,0.148789 0.2144,0.148789 0.11792,0 0.25578,-0.06696 0.30636,-0.148789 z m 8.10897,-0.180451 c 0,-0.164525 -0.41067,-0.146464 -0.51519,0.02266 -0.0475,0.07688 0.049,0.129587 0.2144,0.117125 0.16544,-0.01246 0.30079,-0.07536 0.30079,-0.139783 z m 37.318062,34.448983 c 0.1074,-0.043 0.23573,-0.0377 0.28517,0.0117 0.0495,0.0494 -0.0384,0.0846 -0.19528,0.0781 -0.17333,-0.007 -0.20859,-0.0424 -0.0899,-0.0899 z m 2.18533,-0.19594 c -0.0506,-0.0818 0.0459,-0.148783 0.2144,-0.148783 0.1685,0 0.30636,0.067 0.30636,0.148783 0,0.0818 -0.0965,0.14879 -0.2144,0.14879 -0.11792,0 -0.25578,-0.067 -0.30636,-0.14879 z m -8.13689,-0.10163 c 0.10741,-0.043 0.23574,-0.0377 0.28518,0.0117 0.0494,0.0495 -0.0384,0.0846 -0.19528,0.0782 -0.17334,-0.007 -0.20859,-0.0424 -0.0899,-0.0899 z M 76.926538,99.670257 c -0.0506,-0.0818 0.008,-0.14879 0.13122,-0.14879 0.12276,0 0.26457,0.0669 0.31514,0.14879 0.0506,0.0818 -0.008,0.14879 -0.13122,0.14879 -0.12275,0 -0.26457,-0.067 -0.31514,-0.14879 z m 1.85986,0.0333 c 0,-0.081 0.15064,-0.18773 0.33477,-0.23707 0.52738,-0.14133 1.3019,-0.10861 1.3019,0.055 0,0.0818 -0.26234,0.14879 -0.58299,0.14879 -0.32064,0 -0.68889,0.0406 -0.81833,0.0903 -0.12945,0.0497 -0.23535,0.024 -0.23535,-0.057 z m 9.86007,0.0124 c 0.14477,-0.0377 0.34563,-0.0352 0.44637,0.006 0.10073,0.0408 -0.0177,0.0716 -0.26321,0.0686 -0.24551,-0.003 -0.32793,-0.0364 -0.18316,-0.0741 z m 9.33365,-0.0457 c 0,-0.0818 0.0709,-0.14879 0.15758,-0.14879 0.0867,0 0.11618,0.0669 0.0656,0.14879 -0.0506,0.0818 -0.12149,0.14879 -0.15757,0.14879 -0.0361,0 -0.0656,-0.067 -0.0656,-0.14879 z m 61.338122,0.0462 c 0.14321,-0.0374 0.37755,-0.0374 0.52076,0 0.14321,0.0374 0.026,0.068 -0.26038,0.068 -0.28642,0 -0.40359,-0.0306 -0.26038,-0.068 z m -78.597592,-0.19501 c 0,-0.0818 0.19691,-0.14879 0.43758,-0.14879 0.24067,0 0.47897,0.067 0.52954,0.14879 0.0547,0.0885 -0.12244,0.14879 -0.43758,0.14879 -0.29125,0 -0.52954,-0.067 -0.52954,-0.14879 z m 8.78203,0.099 c 0.15463,-0.14737 2.15594,-0.3797 2.2719,-0.26374 0.0681,0.0681 -0.0645,0.15755 -0.29466,0.19878 -0.56097,0.1005 -2.06642,0.14996 -1.97724,0.065 z m 34.441072,-0.20918 c 0.23003,-0.23803 0.81833,-0.37997 0.81833,-0.19743 0,0.0874 -0.0949,0.15881 -0.21101,0.15881 -0.11606,0 -0.33366,0.0433 -0.48356,0.0963 -0.18591,0.0657 -0.22525,0.0474 -0.12376,-0.0577 z m 21.7145,-0.0526 c -0.0458,-0.0742 0.088,-0.13482 0.29743,-0.13482 0.45589,0 0.49272,0.0848 0.0833,0.19186 -0.16358,0.0428 -0.33492,0.0171 -0.38075,-0.057 z m -81.481042,-0.0877 c 0.10741,-0.043 0.23574,-0.0377 0.28518,0.0117 0.0494,0.0494 -0.0384,0.0846 -0.19528,0.0781 -0.17333,-0.007 -0.20859,-0.0424 -0.0899,-0.0899 z m 43.030802,-0.12514 c 0.10352,-0.12473 0.21885,-0.19614 0.2563,-0.15869 0.10319,0.10319 -0.10646,0.38547 -0.28628,0.38547 -0.0987,0 -0.0874,-0.0854 0.03,-0.22678 z m -1.93723,-0.0353 c 0,-0.0828 0.2176,-0.18364 0.48356,-0.22415 0.80711,-0.12292 0.79776,0.11839 -0.0108,0.28011 -0.28184,0.0564 -0.47271,0.0338 -0.47271,-0.056 z m 41.69726,-0.0727 c 0.0942,-0.28615 0.70749,-0.32736 0.70749,-0.0476 0,0.15192 -0.13433,0.23353 -0.38437,0.23353 -0.24097,0 -0.36152,-0.0694 -0.32312,-0.18598 z m 34.03614,-0.11159 c 0,-0.0818 0.20086,-0.14879 0.44636,-0.14879 0.2455,0 0.44637,0.067 0.44637,0.14879 0,0.0818 -0.20087,0.14878 -0.44637,0.14878 -0.2455,0 -0.44636,-0.067 -0.44636,-0.14878 z m -54.67982,-2.23183 c 0.0506,-0.0818 0.15892,-0.14879 0.24075,-0.14879 0.0818,0 0.10741,0.067 0.0568,0.14879 -0.0506,0.0818 -0.15891,0.14878 -0.24074,0.14878 -0.0818,0 -0.10741,-0.067 -0.0568,-0.14878 z m 58.95501,-1.65514 c 0.10093,-0.10169 0.22099,-0.1474 0.2668,-0.10159 0.0458,0.0458 -0.0368,0.12901 -0.18351,0.18488 -0.21206,0.0807 -0.22914,0.0637 -0.0833,-0.0833 z M 12.129098,94.179027 c 0,-0.0742 0.13391,-0.0998 0.29758,-0.057 0.16366,0.0428 0.29757,0.10349 0.29757,0.13486 0,0.0314 -0.13391,0.057 -0.29757,0.057 -0.16367,0 -0.29758,-0.0607 -0.29758,-0.13486 z m 175.446642,-0.0141 c 0.0316,-0.0947 0.22299,-0.27224 0.42541,-0.39463 0.29153,-0.17627 0.45818,-0.18814 0.80145,-0.0571 0.55377,0.21137 0.36284,0.38843 -0.56123,0.52051 -0.51954,0.0742 -0.70685,0.0549 -0.66563,-0.0688 z m 4.4109,-3.67236 c 0.10741,-0.043 0.23574,-0.0377 0.28518,0.0117 0.0494,0.0494 -0.0384,0.0846 -0.19529,0.0781 -0.17333,-0.007 -0.20858,-0.0424 -0.0899,-0.0899 z m -4.28698,-7.48658 c 0,-0.0818 0.067,-0.14878 0.14879,-0.14878 0.0818,0 0.14879,0.0669 0.14879,0.14878 0,0.0818 -0.0669,0.14879 -0.14879,0.14879 -0.0818,0 -0.14879,-0.0669 -0.14879,-0.14879 z m 1.09903,-0.63035 c 0.0216,-0.42551 0.47272,-0.52675 0.57662,-0.12941 0.0908,0.34727 0.006,0.46219 -0.34103,0.46219 -0.16721,0 -0.24676,-0.11238 -0.23559,-0.33278 z m -1.84297,-1.45269 c 0,-0.0818 0.0709,-0.14878 0.15757,-0.14878 0.0867,0 0.11619,0.0669 0.0656,0.14878 -0.0506,0.0818 -0.12148,0.14879 -0.15756,0.14879 -0.0361,0 -0.0656,-0.067 -0.0656,-0.14879 z M 178.92114,70.35896 c 0,-0.08183 0.0677,-0.148789 0.15041,-0.148789 0.0827,0 0.46163,-0.146292 0.84202,-0.325094 0.58983,-0.277253 0.93445,-0.322788 2.3418,-0.309419 1.90161,0.01806 1.98222,0.03044 1.27821,0.196191 -0.28641,0.06744 -0.88901,0.23074 -1.33909,0.362898 -0.54984,0.161446 -1.14743,0.21719 -1.82133,0.169894 -0.55163,-0.03872 -1.04101,-0.0089 -1.08749,0.06636 -0.11304,0.182896 -0.36453,0.174591 -0.36453,-0.01204 z m -7.73701,-2.509227 c 0,-0.138313 0.76964,-0.33959 0.88034,-0.230224 0.0941,0.09301 -0.0218,0.158538 -0.47117,0.266342 -0.22504,0.05399 -0.40917,0.03773 -0.40917,-0.03612 z m -49.47221,-0.317757 c 0.0506,-0.08183 0.12148,-0.148788 0.15757,-0.148788 0.0361,0 0.0656,0.06695 0.0656,0.148788 0,0.08183 -0.0709,0.148789 -0.15757,0.148789 -0.0867,0 -0.11619,-0.06695 -0.0656,-0.148789 z m -21.5453,-0.437909 c 0.044,-0.168342 0.1441,-0.306075 0.22239,-0.306075 0.19753,0 0.0859,0.482875 -0.12815,0.554125 -0.11086,0.03691 -0.14515,-0.05335 -0.0942,-0.24805 z M 23.801148,66.503123 c 0.0463,-0.07484 -10e-6,-0.166907 -0.10281,-0.204584 -0.13191,-0.04834 -0.14077,-0.117927 -0.0301,-0.236449 0.116,-0.12426 0.22835,-0.115619 0.4319,0.03322 0.29752,0.217549 0.20158,0.54389 -0.15988,0.54389 -0.12275,0 -0.18534,-0.06124 -0.13908,-0.136081 z"
       id="path577"
       inkscape:export-filename="path577.svg"
       inkscape:export-xdpi="96"
       inkscape:export-ydpi="96" /></g></svg>
