<?xml version="1.0" encoding="UTF-8" standalone="no"?>
<!-- Created with Inkscape (http://www.inkscape.org/) -->

<svg
   width="187.64348mm"
   height="35.139038mm"
   viewBox="0 0 187.64348 35.139038"
   version="1.1"
   id="svg481"
   xml:space="preserve"
   inkscape:version="1.2.1 (9c6d41e410, 2022-07-14)"
   sodipodi:docname="paths 1.svg"
   xmlns:inkscape="http://www.inkscape.org/namespaces/inkscape"
   xmlns:sodipodi="http://sodipodi.sourceforge.net/DTD/sodipodi-0.dtd"
   xmlns="http://www.w3.org/2000/svg"
   xmlns:svg="http://www.w3.org/2000/svg"><sodipodi:namedview
     id="namedview483"
     pagecolor="#ffffff"
     bordercolor="#666666"
     borderopacity="1.0"
     inkscape:showpageshadow="2"
     inkscape:pageopacity="0.0"
     inkscape:pagecheckerboard="0"
     inkscape:deskcolor="#d1d1d1"
     inkscape:document-units="mm"
     showgrid="false"
     inkscape:zoom="0.733172"
     inkscape:cx="726.97812"
     inkscape:cy="477.37775"
     inkscape:window-width="1920"
     inkscape:window-height="1001"
     inkscape:window-x="-7"
     inkscape:window-y="-7"
     inkscape:window-maximized="1"
     inkscape:current-layer="layer1" /><defs
     id="defs478" /><g
     inkscape:label="Layer 1"
     inkscape:groupmode="layer"
     id="layer1"
     transform="translate(-8.8322451,-155.75682)"><path
       style="display:inline;fill:#00000020;stroke-width:0.141725"
       d="m 36.697135,190.87675 c -3.99545,-0.30754 -4.46142,-0.5311 -7.62979,-0.44563 -4.35351,0.0972 -9.48362,-0.81597 -13.19679,-0.86187 -3.21361,-0.35218 -1.90155,-3.80158 -5.45942,-3.72106 -1.9650498,-1.17105 0.92102,-3.60925 -1.5788898,-4.35666 1.1050997,-1.0813 3.2307398,-4.66256 1.9472198,-5.33808 4.00854,-2.64057 -3.7495198,-4.5103 -0.37337,-5.64981 -2.2830798,-0.0388 2.47195,-2.62567 0.96121,-3.51902 1.82634,-2.77918 6.11575,-1.20093 7.4835,-2.06917 3.34003,-0.6281 3.30925,-2.21293 5.67944,-0.80787 1.47596,-0.77119 2.51215,1.43568 3.78567,-0.328 0.12082,0.76604 7.27398,-1.0091 1.74107,-0.78448 -3.06271,0.14442 -13.12432,-1.49529 -4.78547,-1.06513 3.94631,0.12437 5.48242,0.18692 9.21774,-0.0223 3.70534,0.66168 8.03361,-0.3373 10.92904,-0.21774 4.88219,1.52346 10.0409,-1.00955 15.05125,0.0857 4.31582,-0.36285 8.54991,-0.5515 12.89266,-0.42429 3.81163,-0.0894 9.16614,-0.80607 11.79121,-0.6004 3.03231,0.21665 6.67813,0.24032 9.9198,-0.10294 3.80571,-0.15563 8.304345,0.23612 12.414055,0.17829 4.51088,-0.63474 8.45201,1.22832 13.06022,0.39959 5.86968,-0.3398 11.91757,0.12089 17.68895,-0.029 3.34385,-1.66686 7.76151,-1.39264 11.22363,-1.63127 5.65648,-0.0237 11.17377,-0.13675 16.76185,0.0999 5.30851,0.35913 10.64754,-0.8447 15.91485,0.32895 3.2054,-0.20411 9.9445,0.49052 10.96909,1.58841 -7.3668,-0.46218 1.56586,0.75286 2.1025,1.24545 -2.66199,0.39704 -11.78877,-0.0459 -4.41769,1.37196 4.23945,0.01 1.83278,0.95688 3.34542,2.52018 2.86322,1.46791 -6.81812,0.94585 -0.14717,2.3699 4.55476,1.00361 -6.64133,0.48081 -0.51493,2.46273 3.20015,1.82713 3.69458,1.33782 -0.18977,1.69228 2.51253,1.90183 5.61918,1.85653 0.18423,1.80368 -7.62602,-0.18013 3.22394,0.6388 1.51032,2.09435 -4.28913,-0.58323 1.86524,2.37332 -1.12934,2.31243 6.50823,1.7238 -2.12168,1.67474 -4.69372,1.84254 4.01655,0.28517 6.612,2.65687 1.58199,2.37357 -2.90589,-0.2562 -7.268,0.11731 -3.11454,0.60428 -4.78298,0.27183 -8.37942,1.84599 -12.53692,2.58562 -2.82452,-0.2115 -6.2399,-0.92506 -8.6017,-0.86713 -1.82638,-0.82917 -5.96921,1.73217 -8.0496,-0.68091 -1.69604,1.31485 -5.54258,0.62662 -10.03556,1.01873 -6.13001,-0.069 -12.3086,0.39304 -18.1106,1.41671 -3.91043,0.4387 -7.90319,-1.46059 -12.20792,0.61751 0.0308,-1.3292 -5.00861,-0.19436 -6.88632,-0.30717 -0.57437,-2.96778 -6.48521,-0.16651 -1.98973,-0.26533 -5.60585,0.52928 -11.253045,0.39647 -17.027275,0.47024 -4.41655,1.75293 -7.75181,-1.34298 -12.83427,0.62519 -3.62043,1.27616 -8.70025,0.31333 -11.9381,0.56823 -2.05081,0.0476 -7.00542,0.27843 -10.24379,0.79823 -3.40144,0.0819 -2.48401,-1.90663 -7.45607,-0.83066 -3.53537,0.76833 -9.4015,-0.44913 -10.89396,1.47037 -0.89481,-0.40446 -1.404,-0.053 -2.11421,-0.0192 z m 36.92052,-1.57062 c -0.33855,-0.5363 -0.3386,0.53628 0,0 z m 32.504135,-1.93851 c -0.23226,-1.0371 -0.65245,0.44022 0,0 z m -2.89416,-1.03243 c -1.21422,-0.93292 -0.9466,1.01476 0,0 z m -1.03549,-0.0375 c -0.33851,-0.53628 -0.33861,0.53624 0,0 z m 6.57452,-0.17135 c 0.29887,-0.75472 -2.69753,0.58457 0,0 z m 2.91457,0.16605 c 0.68068,-1.3607 -2.332,0.32917 0,0 z m -1.61108,-0.29556 c -0.33854,-0.53625 -0.33859,0.53623 0,0 z m 5.5918,0.0145 c 0.10507,-1.20248 -1.34743,0.15884 0,0 z m 2.35464,-0.10985 c 2.84009,-1.05211 -4.72745,0.16735 0,0 z m 30.01317,-0.37295 c -0.93279,-0.3662 0.19069,1.0096 0,0 z m -24.67382,0.017 c -0.65266,-0.5446 -0.35712,0.57478 0,0 z m 14.88811,-0.51762 c -0.39949,-1.12884 -0.33947,0.76367 0,0 z m 12.81845,-0.084 c -1.67909,-1.28476 -3.87385,0.15301 0,0 z m -5.37122,-0.0269 c -0.9851,-1.38008 -0.62732,0.84588 0,0 z m 6.60347,-0.0221 c 1.75524,-1.50409 -2.506,0.23799 0,0 z m 14.24922,-0.17896 c -0.91934,-1.39581 -3.09478,1.08589 0,0 z m -10.47425,0.0678 c 9.09265,-0.96062 -7.90347,-1.05184 0,0 z m 26.60572,-0.0279 c -2.24318,-0.93681 -0.75828,0.44414 0,0 z m 0.70027,-0.0215 c -0.50503,-0.48466 -0.72918,0.26143 0,0 z m -35.01987,-0.1822 c -0.52075,-0.29799 -0.12917,0.32972 0,0 z m 19.93147,0.0246 c -0.29231,-0.50714 -0.39881,0.28104 0,0 z m 3.20462,-0.0841 c 0.30922,-0.60156 -0.98928,0.52511 0,0 z m 6.2757,0.0141 c -0.70736,-0.2581 -0.70254,0.46255 0,0 z m -0.97084,-0.105 c -0.52076,-0.29799 -0.12915,0.32973 0,0 z m -163.744235,-0.4569 c 0.13231,-0.65122 -0.65759,0.83982 0,0 z m 5.21873,-2.91206 c -0.15528,-0.54466 -0.33285,0.53338 0,0 z m 38.0548,-4.21195 c -0.34345,-0.55307 -0.50559,0.53676 0,0 z M 100.4563,176.0687 c -0.33287,-0.53335 -0.15526,0.54464 0,0 z m -85.923735,-2.40684 c -0.1552,-0.54461 -0.33291,0.5334 0,0 z m 176.395205,-2.93811 c -1.82066,-0.77956 0.60091,0.94036 0,0 z M 12.253985,170.3367 c -0.57325,-0.49874 -0.2471,0.72357 0,0 z m -0.72574,-0.73638 c -0.33863,-0.53625 -0.33853,0.53629 0,0 z m -0.66763,-0.0662 c -0.29179,-0.50701 -0.39928,0.28085 0,0 z m 33.04759,-0.23452 c -0.15522,-0.54465 -0.3329,0.53331 0,0 z m 144.166745,-1.70387 c -1.30586,-0.0938 0.95012,0.54352 0,0 z m -170.471285,-0.4024 c -0.33857,-0.53625 -0.33857,0.53625 0,0 z m 16.56164,-1.84274 c -0.27476,-2.08702 -0.55566,2.55336 0,0 z m 29.57145,0.57298 c -0.29173,-0.50707 -0.39926,0.28149 0,0 z m -44.86461,-0.38494 c -0.15531,-0.54478 -0.33251,0.53349 0,0 z m 21.06184,-0.4737 c -0.15966,-1.04768 -0.24034,1.23206 0,0 z m 147.248285,-1.6586 c -3.57836,-1.11647 -4.71988,0.66543 0,0 z m -3.77318,-0.19932 c -0.5151,-0.60708 -0.91307,0.85554 0,0 z M 53.588805,190.60318 c 0.47772,-0.63573 0.60734,-0.39155 0,0 z m -5.7772,-0.71401 c 0.71995,-0.46227 -0.34167,0.49234 0,0 z m 37.89012,-0.43261 c 0.33298,-0.53329 0.15513,0.54461 0,0 z m 1.61088,-0.34495 c 0.46372,-0.69322 -0.16786,0.65017 0,0 z m 17.216235,-0.25677 c -0.61137,-0.49592 0.99328,0.40835 0,0 z m 0.64711,-0.17058 c 1.25283,-0.12963 -0.57956,0.50064 0,0 z m 89.28238,-6.386 c -0.21964,-0.78174 3.26083,0.65875 0,0 z M 29.900905,162.25273 c 0.0436,-0.75066 0.69379,0.0917 0,0 z m -9.72688,-0.21897 c -1.1814,-0.97862 2.50514,0.62429 0,0 z m 76.76449,-3.63407 c 0.75439,-0.30786 -0.0672,-0.17666 0,0 z m 0.98095,-0.0439 c 2.909955,-0.43547 2.546765,0.34951 0,0 z m 3.168865,-0.2067 c 0.71992,-0.46226 -0.34158,0.49228 0,0 z m 55.98283,-1.78646 c 1.20904,-0.69708 1.79638,0.5651 0,0 z m -85.122575,-0.15044 c 0.47853,-0.5802 0.92797,0.55387 0,0 z m 1.64403,-0.10274 c 0.59074,-0.20321 0.0434,0.28436 0,0 z m 102.208045,-0.15192 c 0.88292,-0.21804 0.1633,0.24905 0,0 z m 1.40783,0.002 c 0.59074,-0.20323 0.0434,0.28436 0,0 z m 0.52576,0.002 c 0.73398,-0.23837 0.12977,0.26186 0,0 z m -3.19627,-0.15357 c 0.59074,-0.20323 0.0434,0.28436 0,0 z"
       id="path619"
       inkscape:export-filename="path619.svg"
       inkscape:export-xdpi="96"
       inkscape:export-ydpi="96" /></g></svg>
