<svg xmlns="http://www.w3.org/2000/svg" xmlns:xlink="http://www.w3.org/1999/xlink" viewBox="0 0 376 277.51"><defs><style>.cls-1,.cls-4{fill:none;}.cls-2{fill:#ffa6c7;}.cls-2,.cls-4,.cls-5{stroke:#000;stroke-miterlimit:10;}.cls-3{clip-path:url(#clip-path);}.cls-5{fill:#fce46a;}</style><clipPath id="clip-path"><circle class="cls-1" cx="187" cy="137.75" r="87.5"/></clipPath></defs><g id="Layer_2" data-name="Layer 2"><g id="Layer_1-2" data-name="Layer 1"><circle class="cls-2" cx="187" cy="137.75" r="100"/><g class="cls-3"><image width="300" height="294" transform="translate(87 43.75) scale(0.71)" xlink:href="self-portrait-small.jpeg"/></g><circle class="cls-4" cx="187" cy="137.75" r="87.5"/><path class="cls-2" d="M111.5,55.26l-5.78,4.54L42.13,15.52,52.53.75ZM83.75,85.92,22.47,47.31,11.38,66.61l68.9,27.26Zm-8.09,25L4,99.54l3.47,22.71L69.88,120ZM71,147.24.5,145V170.2l64.75-9.34Zm-63.59,42,3.94,20.65L79.13,187,75.66,174.9ZM82.65,209.9l-66,21.36,6.94,12.49,60.12-24.44ZM268.5,224.27l5.57-4.38,61.31,42.65-10,14.21Zm26.75-29.52,59.07,37.17L365,213.33l-66.42-26.24Zm7.8-24.06,69.11,10.93-3.35-21.87-60.18,2.19Zm4.46-35,68,2.19v-24.3l-62.42,9Zm61.3-40.46L365,75.35l-65.3,22.08,3.34,11.62Zm-72.5-19.89L359.9,54.78l-6.69-12-58,23.54Z"/><path class="cls-5" d="M147,248.75a16,16,0,1,1-16-16A16,16,0,0,1,147,248.75Zm-58.5-51A10.5,10.5,0,1,0,99,208.25,10.51,10.51,0,0,0,88.5,197.75Zm-27-63A12.5,12.5,0,1,0,74,147.25,12.5,12.5,0,0,0,61.5,134.75Zm12.5-70a10,10,0,1,0,10,10A10,10,0,0,0,74,64.75Zm44.5-42a8.5,8.5,0,1,0,8.5,8.5A8.51,8.51,0,0,0,118.5,22.75Zm64.5-14a10,10,0,1,0,10,10A10,10,0,0,0,183,8.75Zm76.5,19a9.5,9.5,0,1,0,9.5,9.5A9.5,9.5,0,0,0,259.5,27.75Zm36.5,47a12,12,0,1,0,12,12A12,12,0,0,0,296,74.75Zm23,67a11,11,0,1,0,11,11A11,11,0,0,0,319,141.75Zm-13.5,54a8.5,8.5,0,1,0,8.5,8.5A8.51,8.51,0,0,0,305.5,195.75Zm-27.5,31a12,12,0,1,0,12,12A12,12,0,0,0,278,226.75Zm-42.5,24a8.5,8.5,0,1,0,8.5,8.5A8.51,8.51,0,0,0,235.5,250.75Zm-50,3a9.5,9.5,0,1,0,9.5,9.5A9.5,9.5,0,0,0,185.5,253.75Z"/></g></g></svg>